<svg width="38" height="38" fill="none" xmlns="http://www.w3.org/2000/svg"><path d="M34.833 11.4h-6.966V8.233c0-.014-.007-.026-.009-.04a.597.597 0 00-.032-.162c-.007-.02-.012-.04-.02-.06a.629.629 0 00-.127-.185l-7.6-7.6a.637.637 0 00-.187-.127.549.549 0 00-.057-.02.628.628 0 00-.167-.033c-.01.001-.021-.006-.035-.006H3.167A3.17 3.17 0 000 3.167V32.3a3.17 3.17 0 003.167 3.167H16.53A3.172 3.172 0 0019.633 38h15.2A3.17 3.17 0 0038 34.833V14.567a3.17 3.17 0 00-3.167-3.167zm-9.129-3.8H20.9a.633.633 0 01-.633-.633V2.162L25.704 7.6zM1.267 32.3V3.167c0-1.05.85-1.9 1.9-1.9H19v5.7a1.9 1.9 0 001.9 1.9h5.7V11.4h-6.967a3.17 3.17 0 00-3.166 3.167V34.2h-13.3a1.9 1.9 0 01-1.9-1.9zm35.466 2.533a1.9 1.9 0 01-1.9 1.9h-15.2a1.9 1.9 0 01-1.9-1.9V14.567a1.9 1.9 0 011.9-1.9h15.2c1.05 0 1.9.85 1.9 1.9v20.266z" fill="#fff"/><path d="M32.3 13.933H22.167A3.17 3.17 0 0019 17.1v2.533a3.17 3.17 0 003.167 3.167H32.3a3.17 3.17 0 003.167-3.167V17.1a3.17 3.17 0 00-3.167-3.167zm1.9 5.7a1.9 1.9 0 01-1.9 1.9H22.167a1.9 1.9 0 01-1.9-1.9V17.1c0-1.05.85-1.9 1.9-1.9H32.3c1.05 0 1.9.85 1.9 1.9v2.533zm-12.667 4.434a2.533 2.533 0 100 5.067 2.533 2.533 0 000-5.067zm0 3.8a1.267 1.267 0 110-2.534 1.267 1.267 0 010 2.534zm5.7-3.8a2.533 2.533 0 100 5.067 2.533 2.533 0 000-5.067zm0 3.8a1.267 1.267 0 110-2.534 1.267 1.267 0 010 2.534zm-5.7 2.533a2.533 2.533 0 100 5.067 2.533 2.533 0 000-5.067zm0 3.8a1.267 1.267 0 110-2.533 1.267 1.267 0 010 2.533zm5.7-3.8a2.533 2.533 0 100 5.067 2.533 2.533 0 000-5.067zm0 3.8a1.267 1.267 0 110-2.533 1.267 1.267 0 010 2.533zm5.7-10.133A2.533 2.533 0 0030.4 26.6v6.333a2.533 2.533 0 005.067 0V26.6a2.533 2.533 0 00-2.534-2.533zm1.267 8.866a1.267 1.267 0 01-2.533 0V26.6a1.267 1.267 0 012.533 0v6.333zM6.519 11.214a.634.634 0 00.895 0l5.7-5.7a.633.633 0 00-.895-.895l-5.7 5.7a.634.634 0 000 .895zm3.614-1.081a1.9 1.9 0 103.8 0 1.9 1.9 0 00-3.8 0zm2.534 0a.633.633 0 11-1.267 0 .633.633 0 011.267 0zM7.6 7.6a1.9 1.9 0 100-3.8 1.9 1.9 0 000 3.8zm0-2.533a.633.633 0 110 1.266.633.633 0 010-1.266zM4.433 17.1h7.6a.633.633 0 000-1.267h-7.6a.633.633 0 000 1.267zm8.867 1.267H4.433a.633.633 0 100 1.266H13.3a.633.633 0 100-1.266zM6.967 20.9H4.433a.633.633 0 000 1.267h2.534a.633.633 0 000-1.267zm6.333 0H9.5a.633.633 0 000 1.267h3.8a.633.633 0 000-1.267z" fill="#fff"/></svg>