<svg width="112" height="112" fill="none" xmlns="http://www.w3.org/2000/svg"><path d="M102.667 33.6H82.133v-9.333c0-.041-.02-.077-.024-.118a1.753 1.753 0 00-.095-.48c-.021-.06-.036-.117-.062-.175a1.857 1.857 0 00-.373-.547L59.18.547a1.878 1.878 0 00-.549-.374c-.056-.024-.11-.039-.168-.06a1.848 1.848 0 00-.492-.097C57.94.021 57.906 0 57.867 0H9.333A9.344 9.344 0 000 9.333V95.2a9.344 9.344 0 009.333 9.333H48.72A9.35 9.35 0 0057.867 112h44.8a9.344 9.344 0 009.333-9.333V42.933a9.344 9.344 0 00-9.333-9.333zM75.76 22.4H61.6a1.867 1.867 0 01-1.867-1.867V6.373L75.76 22.4zM3.733 95.2V9.333a5.6 5.6 0 015.6-5.6H56v16.8a5.6 5.6 0 005.6 5.6h16.8V33.6H57.867a9.344 9.344 0 00-9.334 9.333V100.8h-39.2a5.6 5.6 0 01-5.6-5.6zm104.534 7.467c0 3.092-2.508 5.6-5.6 5.6h-44.8a5.6 5.6 0 01-5.6-5.6V42.933a5.6 5.6 0 015.6-5.6h44.8a5.6 5.6 0 015.6 5.6v59.734z" fill="#fff"/><path d="M95.2 41.067H65.333A9.344 9.344 0 0056 50.4v7.467a9.344 9.344 0 009.333 9.333H95.2a9.344 9.344 0 009.333-9.333V50.4a9.344 9.344 0 00-9.333-9.333zm5.6 16.8a5.6 5.6 0 01-5.6 5.6H65.333a5.6 5.6 0 01-5.6-5.6V50.4a5.6 5.6 0 015.6-5.6H95.2a5.6 5.6 0 015.6 5.6v7.467zM63.467 70.933a7.467 7.467 0 100 14.934 7.467 7.467 0 000-14.934zm0 11.2a3.734 3.734 0 110-7.467 3.734 3.734 0 010 7.467zm16.8-11.2a7.467 7.467 0 100 14.934 7.467 7.467 0 000-14.934zm0 11.2a3.734 3.734 0 110-7.467 3.734 3.734 0 010 7.467zm-16.8 7.467a7.467 7.467 0 100 14.934 7.467 7.467 0 000-14.934zm0 11.2a3.734 3.734 0 110-7.467 3.734 3.734 0 010 7.467zm16.8-11.2a7.467 7.467 0 100 14.934 7.467 7.467 0 000-14.934zm0 11.2a3.734 3.734 0 110-7.467 3.734 3.734 0 010 7.467zm16.8-29.867A7.467 7.467 0 0089.6 78.4v18.667a7.467 7.467 0 0014.933 0V78.4a7.467 7.467 0 00-7.466-7.467zm3.733 26.134a3.733 3.733 0 01-7.467 0V78.4a3.734 3.734 0 017.467 0v18.667zM19.213 33.053c.73.728 1.911.728 2.64 0l16.8-16.8a1.867 1.867 0 00-2.64-2.64l-16.8 16.8a1.868 1.868 0 000 2.64zm10.654-3.186a5.6 5.6 0 1011.2 0 5.6 5.6 0 00-11.2 0zm7.466 0a1.867 1.867 0 11-3.733 0 1.867 1.867 0 013.733 0zM22.4 22.4a5.6 5.6 0 100-11.2 5.6 5.6 0 000 11.2zm0-7.467a1.867 1.867 0 110 3.734 1.867 1.867 0 010-3.734zM13.067 50.4h22.4a1.867 1.867 0 000-3.733h-22.4a1.867 1.867 0 000 3.733zM39.2 54.133H13.067a1.867 1.867 0 000 3.734H39.2a1.867 1.867 0 000-3.734zM20.533 61.6h-7.466a1.867 1.867 0 000 3.733h7.466a1.867 1.867 0 000-3.733zm18.667 0H28a1.867 1.867 0 000 3.733h11.2a1.867 1.867 0 000-3.733z" fill="#fff"/></svg>