<svg width="86" height="102" fill="none" xmlns="http://www.w3.org/2000/svg"><path d="M82.91 12.776h-9.681V3.09A3.094 3.094 0 0070.139 0h-3.193a3.094 3.094 0 00-3.09 3.091v9.685H19.054a3.094 3.094 0 00-3.09 3.09v13.96L2.55 16.407A1.493 1.493 0 000 17.464v60.684c0 .826.669 1.495 1.494 1.495h14.47v4.893a1.494 1.494 0 102.987 0v-4.894h43.206a1.493 1.493 0 001.056-2.55L18.95 32.815V15.867c0-.057.046-.103.103-.103h44.803V51c0 .139.019.277.057.41l3.193 11.18a1.494 1.494 0 002.872 0l3.193-11.18a1.5 1.5 0 00.057-.41V23.852a1.494 1.494 0 10-2.987 0v24.057h-3.398V9.376h3.398v8.087a1.494 1.494 0 102.987 0v-1.699h9.681c.057 0 .103.046.103.103v75.057c0 4.46-3.627 8.088-8.085 8.088-4.001 0-7.442-2.983-8.004-6.939a3.091 3.091 0 00-3.046-2.643H9.638c-.936 0-1.814.415-2.41 1.138a2.993 2.993 0 00-.639 2.48C7.597 98.235 12.17 102 17.458 102h57.47C81.033 102 86 97.031 86 90.924V15.867a3.094 3.094 0 00-3.09-3.091zM58.55 76.654H2.988V21.071l55.564 55.583zm11.661-25.757l-1.668 5.843-1.67-5.843h3.338zm.03-44.51h-3.397V3.092c0-.057.046-.103.102-.103h3.193c.057 0 .103.046.103.103v3.297zM17.459 99.013c-3.863 0-7.2-2.748-7.937-6.524.005-.017.05-.07.117-.07h54.24a.09.09 0 01.089.076 11.023 11.023 0 003.416 6.518H17.458z" fill="#fff"/><path d="M40.863 67.51L12.128 38.765a1.493 1.493 0 00-2.55 1.056v28.746c0 .825.67 1.494 1.494 1.494h28.735a1.494 1.494 0 001.056-2.55zm-24.9-.438h-3.397V43.428l3.398 3.4v20.244zm2.988 0V49.816l17.25 17.256h-17.25z" fill="#fff"/></svg>