<svg width="115" height="26" fill="none" xmlns="http://www.w3.org/2000/svg"><path d="M14.9 0H6.1A6.107 6.107 0 000 6.1v8.8C0 18.264 2.737 21 6.1 21h8.8c3.364 0 6.1-2.736 6.1-6.1V6.1C21 2.737 18.264 0 14.9 0zm4.46 14.9a4.465 4.465 0 01-4.46 4.46H6.1a4.465 4.465 0 01-4.46-4.46V6.1A4.465 4.465 0 016.1 1.64h8.8a4.465 4.465 0 014.46 4.46v8.8z" fill="#DB812D"/><path d="M10.5 4.84a5.667 5.667 0 00-5.66 5.66c0 3.121 2.539 5.66 5.66 5.66s5.66-2.539 5.66-5.66-2.539-5.66-5.66-5.66zm0 9.68a4.024 4.024 0 01-4.02-4.02 4.024 4.024 0 014.02-4.02 4.024 4.024 0 014.02 4.02 4.024 4.024 0 01-4.02 4.02zm5.742-8.942a.82.82 0 100-1.64.82.82 0 000 1.64zM35.323 3.08c-1.719.695-3.61 2.657-4.206 5.12-.756 3.121 2.39 4.441 2.648 4.009.304-.509-.564-.68-.742-2.3-.23-2.091.776-4.428 2.044-5.454.236-.19.225.075.225.565 0 .878-.05 8.75-.05 10.394 0 2.223-.095 2.926-.266 3.62-.174.702-.452 1.177-.241 1.36.236.205 1.242-.282 1.824-1.066.699-.941.943-2.072.987-3.299.053-1.48.051-3.827.053-5.166.002-1.229.022-4.825-.022-6.987-.01-.53-1.535-1.087-2.254-.796zm79.3 11.68c-.25 0-.363.249-.457.666-.327 1.453-.67 1.78-1.113 1.78-.495 0-.939-.719-1.053-2.158-.09-1.132-.076-3.216.039-5.289.024-.426-.098-.847-1.282-1.262-.509-.179-1.249-.441-1.618.418-1.041 2.426-1.449 4.352-1.545 5.134-.005.04-.056.049-.065-.046-.061-.626-.198-1.765-.215-4.158-.003-.467-.106-.864-.64-1.19-.346-.21-1.398-.584-1.777-.14-.328.364-.708 1.341-1.103 2.5-.321.942-.544 1.579-.544 1.579s.004-2.541.008-3.505c.001-.364-.257-.485-.335-.507-.351-.098-1.042-.263-1.335-.263-.362 0-.451.196-.451.48 0 .037-.057 3.346-.057 5.66l.001.327c-.201 1.063-.85 2.506-1.556 2.506-.707 0-1.04-.603-1.04-3.361 0-1.61.05-2.309.074-3.473.015-.67.042-1.185.04-1.302-.005-.358-.647-.538-.945-.605a2.872 2.872 0 00-.765-.082c-.288.015-.492.198-.492.449l.002.39c-.371-.563-.968-.955-1.365-1.068-1.07-.307-2.186-.035-3.028 1.102-.67.904-1.073 1.927-1.232 3.397-.116 1.075-.078 2.165.129 3.087-.25 1.04-.713 1.466-1.22 1.466-.735 0-1.268-1.159-1.206-3.163.04-1.318.314-2.243.612-3.582.128-.57.024-.87-.235-1.155-.238-.263-.745-.397-1.475-.232-.52.117-1.262.244-1.942.341 0 0 .041-.158.075-.436.177-1.46-1.467-1.342-1.991-.875-.313.278-.526.606-.607 1.197-.129.936.663 1.378.663 1.378-.26 1.148-.897 2.647-1.554 3.73-.352.582-.621 1.012-.969 1.47l-.003-.51c-.008-2.413.026-4.312.04-4.996.015-.67.043-1.172.04-1.289-.003-.262-.162-.36-.491-.486a3.6 3.6 0 00-.994-.214c-.451-.034-.723.197-.716.47l.001.368c-.37-.562-.968-.954-1.365-1.068-1.07-.306-2.186-.035-3.028 1.102-.67.904-1.107 2.172-1.231 3.386-.116 1.132-.095 2.094.063 2.905-.17.811-.66 1.66-1.212 1.66-.707 0-1.11-.604-1.11-3.362 0-1.609.05-2.309.075-3.472.014-.67.042-1.186.04-1.302-.005-.358-.647-.539-.945-.606a2.839 2.839 0 00-.79-.08c-.273.02-.465.255-.465.431v.406c-.371-.562-.968-.954-1.365-1.068-1.07-.306-2.18-.03-3.028 1.102-.554.739-1.001 1.558-1.232 3.37a10.968 10.968 0 00-.092 1.473c-.22 1.302-1.195 2.802-1.992 2.802-.466 0-.91-.872-.91-2.733 0-2.478.159-6.006.186-6.346l1.201-.02c.503-.004.958.007 1.627-.026.335-.017.658-1.179.312-1.323-.157-.065-1.266-.122-1.706-.13-.37-.009-1.399-.082-1.399-.082s.092-2.342.114-2.59c.018-.206-.258-.312-.417-.377-.385-.157-.73-.232-1.139-.314-.564-.112-.82-.002-.87.458-.076.698-.115 2.743-.115 2.743-.415 0-1.83-.078-2.245-.078-.385 0-.8 1.599-.268 1.618.613.023 1.68.043 2.388.064 0 0-.032 3.586-.032 4.693 0 .118 0 .232.002.342-.39 1.96-1.762 3.018-1.762 3.018.295-1.296-.307-2.27-1.391-3.094-.4-.304-1.188-.879-2.07-1.509 0 0 .51-.486.964-1.464.32-.693.335-1.485-.454-1.66-1.302-.289-2.376.634-2.696 1.62-.248.763-.116 1.33.37 1.918.036.043.074.087.114.13a50.153 50.153 0 01-1.04 1.855c-.95 1.585-1.666 2.839-2.208 2.839-.434 0-.428-1.273-.428-2.465 0-1.027.08-2.572.142-4.172.02-.529-.254-.83-.713-1.103-.279-.166-.875-.492-1.22-.492-.516 0-2.006.068-3.413 3.998a82.491 82.491 0 01-.526 1.398l.03-4.726c0-.11-.062-.218-.202-.291-.237-.124-.87-.379-1.434-.379-.268 0-.402.12-.402.361l-.05 7.394c0 .562.016 1.217.073 1.504.058.287.15.52.266.66a.764.764 0 00.467.288c.203.04 1.32.178 1.378-.233.07-.494.072-1.028.659-3.019.912-3.1 2.102-4.612 2.662-5.15.098-.093.21-.099.204.055-.024.68-.108 2.378-.164 3.82-.152 3.861.576 4.577 1.616 4.577.795 0 1.917-.763 3.12-2.695a769.638 769.638 0 002-3.234c.364.326.773.676 1.181 1.05.95.87 1.262 1.697 1.055 2.48-.158.6-.754 1.218-1.815.618-.309-.175-.44-.31-.752-.508-.166-.106-.421-.138-.574-.027-.397.289-.624.656-.754 1.111-.126.443.333.677.81.882.41.176 1.29.336 1.853.354 2.19.07 3.944-1.02 5.165-3.835.219 2.43 1.149 3.806 2.766 3.806 1.08 0 2.164-1.348 2.637-2.674.136.54.338 1.01.598 1.408 1.245 1.905 3.662 1.495 4.875-.123.376-.5.433-.679.433-.679a2.255 2.255 0 002.18 2.06c.818 0 1.661-.372 2.253-1.657.067.137.143.27.227.4 1.246 1.904 3.662 1.494 4.876-.123.057-.076.107-.145.15-.207l.035 1.003-1.117.99c-1.873 1.656-3.296 2.913-3.4 4.376-.133 1.866 1.433 2.56 2.62 2.65 1.26.097 2.34-.574 3.002-1.514.583-.828.965-2.608.937-4.367-.011-.705-.03-1.6-.044-2.56a20.548 20.548 0 002.08-2.759c.744-1.188 1.54-2.783 1.948-4.025 0 0 .692.006 1.43-.04.237-.016.305.03.261.198-.052.202-.933 3.48-.13 5.663.55 1.495 1.79 1.976 2.526 1.976.86 0 1.683-.628 2.124-1.559.053.104.11.204.17.297 1.245 1.905 3.653 1.492 4.875-.122.276-.365.433-.68.433-.68.262 1.58 1.535 2.069 2.265 2.069.76 0 1.481-.3 2.066-1.637.024.589.063 1.07.123 1.221.038.093.253.21.411.266.695.248 1.404.13 1.666.08.182-.036.323-.177.343-.54.05-.954.019-2.557.319-3.748.503-1.999.972-2.774 1.194-3.158.125-.215.266-.25.271-.023.01.46.034 1.813.229 3.63.143 1.337.334 2.127.481 2.377.419.715.937.748 1.358.748.268 0 .829-.07.779-.526-.024-.222.019-1.592.515-3.561.323-1.287.863-2.448 1.058-2.873.072-.157.105-.034.104-.01-.041.886-.133 3.783.241 5.367.506 2.147 1.972 2.387 2.483 2.387 1.091 0 1.983-.8 2.283-2.907.073-.508-.034-.9-.355-.9zm-45.682-1.302c-.063 1.115-.288 2.047-.65 2.724-.654 1.225-1.95 1.614-2.52-.157-.412-1.276-.271-3.017-.1-3.957.254-1.396.89-2.385 1.883-2.292 1.02.097 1.517 1.362 1.387 3.682zm9.968.016c-.058 1.053-.341 2.11-.65 2.708-.636 1.234-1.968 1.62-2.52-.156-.377-1.214-.287-2.785-.1-3.774.242-1.284.83-2.475 1.884-2.475 1.025 0 1.53 1.085 1.386 3.697zm.26 7.183c-.014 1.92-.327 3.605-.998 4.094-.953.693-2.233.173-1.968-1.229.234-1.24 1.344-2.506 2.969-4.054 0 0 .003.353-.003 1.189zm17.208-7.172c-.056 1.156-.32 2.06-.65 2.697-.637 1.234-1.959 1.617-2.52-.157-.305-.966-.32-2.581-.1-3.93.224-1.374.849-2.412 1.884-2.319 1.02.093 1.498 1.362 1.386 3.71z" fill="#DB812D"/></svg>