<svg width="42" height="42" viewBox="0 0 42 42" fill="none" xmlns="http://www.w3.org/2000/svg">
<path d="M41.9228 9.95415C41.7782 9.4165 41.4255 8.95815 40.943 8.68027C40.4601 8.40102 39.886 8.32549 39.3474 8.47007C38.8095 8.61499 38.3513 8.96738 38.0734 9.45L37.7235 10.0591C37.391 9.86802 36.9662 9.98047 36.7718 10.3113L34.994 13.342L34.3851 12.992C34.2238 12.8987 34.0317 12.8734 33.8519 12.922C33.6718 12.9708 33.5187 13.0891 33.4261 13.2511C33.2365 13.5857 33.352 14.0109 33.6852 14.203L34.2941 14.553L28.3452 24.864L26.8753 28.7913L26.1755 30.1C25.7657 30.813 25.8095 31.6993 26.2876 32.3682L24.7128 34.3L24.272 33.1943C24.0731 32.7014 23.6128 32.3637 23.0834 32.3224C22.5537 32.2807 22.0462 32.5425 21.7732 32.9981L21.5213 33.425L21.2835 30.625C21.2288 29.9626 20.7158 29.4301 20.0563 29.3501C19.3964 29.2705 18.7717 29.6659 18.5608 30.2962L16.8392 35.4621C16.7189 35.8275 16.9157 36.2212 17.28 36.3443C17.3484 36.3761 17.4218 36.3952 17.497 36.4C17.7977 36.401 18.0657 36.2093 18.162 35.9242L19.8765 30.7583L20.1216 33.6C20.1721 34.2063 20.6079 34.7105 21.2004 34.8479C21.793 34.9853 22.4061 34.7242 22.7181 34.2022L22.9771 33.775L23.4111 34.8742C23.5953 35.3374 24.0119 35.6679 24.505 35.7414C24.9982 35.8148 25.493 35.6204 25.8047 35.2311L27.4355 33.1663C27.6159 33.2134 27.8018 33.237 27.9884 33.2363C28.7385 33.2421 29.435 32.847 29.815 32.2L30.5149 31.0311L33.1814 27.7901L39.1933 17.353L39.8023 17.703C39.9646 17.796 40.0829 17.9495 40.131 18.1303C40.1796 18.3097 40.1543 18.5011 40.0613 18.6621L37.2618 23.5132C37.1562 23.6725 37.1203 23.868 37.1627 24.0546C37.2051 24.2409 37.3216 24.4019 37.4856 24.5C37.6469 24.5937 37.839 24.6189 38.0188 24.5704C38.1989 24.5215 38.352 24.4033 38.4446 24.2413L41.2441 19.3901C41.5233 18.9072 41.5988 18.333 41.4539 17.7943C41.309 17.2563 40.9567 16.798 40.4741 16.5201L39.8652 16.1701L41.6149 13.139C41.8059 12.8064 41.6935 12.3819 41.363 12.1871L41.7129 11.578C41.9997 11.0875 42.0755 10.5017 41.9228 9.95415ZM39.2842 10.15C39.3768 9.98799 39.5306 9.86938 39.7114 9.82119C39.8911 9.77676 40.0811 9.80171 40.2431 9.89126C40.4055 9.98389 40.5237 10.1377 40.5722 10.3182C40.6166 10.4979 40.5917 10.688 40.5022 10.85L40.1522 11.4591L38.9343 10.7591L39.2842 10.15ZM29.7449 29.6943L28.3592 28.889L29.3529 26.2292L31.5575 27.503L29.7449 29.6943ZM27.6453 31.717C27.3497 31.5109 27.2588 31.1145 27.4355 30.8L27.7854 30.1913L29.003 30.8913L28.6531 31.4932C28.555 31.6634 28.3903 31.7844 28.1986 31.8271C28.0068 31.8695 27.8062 31.8298 27.6453 31.717ZM32.3555 26.3553L29.9339 24.9553L35.5329 15.253L37.9545 16.653L32.3555 26.3553ZM38.6544 15.442L36.2328 14.042L37.6326 11.6201L40.0541 13.0201L38.6544 15.442Z" fill="#382D2D"/>
<path d="M11.044 31.367L8.5667 33.8382L7.08287 32.3541C6.80982 32.0828 6.36898 32.0828 6.09593 32.3541C5.96334 32.4857 5.88884 32.6645 5.88884 32.8511C5.88884 33.0377 5.96334 33.2168 6.09593 33.3481L7.57976 34.8322C7.84222 35.0926 8.19694 35.2386 8.5667 35.2382C8.93851 35.2403 9.29631 35.0943 9.56048 34.8322L12.0309 32.3541C12.2688 32.0763 12.2527 31.6624 11.9943 31.404C11.7356 31.1452 11.3218 31.1292 11.044 31.367Z" fill="#382D2D"/>
<path d="M2.79952 33.25C2.79952 36.5364 5.46303 39.2 8.74851 39.2C12.034 39.2 14.6975 36.5364 14.6975 33.25C14.6975 32.8634 14.3841 32.55 13.9976 32.55C13.6111 32.55 13.2977 32.8634 13.2977 33.25C13.2977 35.7629 11.261 37.8 8.74851 37.8C6.23605 37.8 4.19928 35.7629 4.19928 33.25C4.19928 30.7371 6.23605 28.7 8.74851 28.7C9.7334 28.6973 10.692 29.0168 11.478 29.6102C11.7872 29.8423 12.226 29.7794 12.4577 29.4701C12.6898 29.1607 12.6272 28.7222 12.318 28.4901C10.5153 27.138 8.1033 26.9206 6.08807 27.9282C4.0725 28.9362 2.79952 30.9965 2.79952 33.25Z" fill="#382D2D"/>
<path d="M25.1957 5.6C25.5822 5.6 25.8956 5.28691 25.8956 4.9C25.8956 4.51343 25.5822 4.2 25.1957 4.2H6.99881C6.6123 4.2 6.29892 4.51343 6.29892 4.9V7.7C6.29892 8.08691 6.6123 8.4 6.99881 8.4H25.1957C25.5822 8.4 25.8956 8.08691 25.8956 7.7C25.8956 7.31343 25.5822 7 25.1957 7H7.69869V5.6H25.1957Z" fill="#382D2D"/>
<path d="M9.09845 9.8C8.71194 9.8 8.39857 10.1134 8.39857 10.5C8.39857 10.8869 8.71194 11.2 9.09845 11.2H23.0961C23.4826 11.2 23.7959 10.8869 23.7959 10.5C23.7959 10.1134 23.4826 9.8 23.0961 9.8H9.09845Z" fill="#382D2D"/>
<path d="M27.2953 14.7H11.898C11.5115 14.7 11.1981 15.0134 11.1981 15.4C11.1981 15.7869 11.5115 16.1 11.898 16.1H27.2953C27.6818 16.1 27.9952 15.7869 27.9952 15.4C27.9952 15.0134 27.6818 14.7 27.2953 14.7Z" fill="#382D2D"/>
<path d="M20.2965 19.6C20.2965 19.2134 19.9832 18.9 19.5967 18.9H5.59904C5.21254 18.9 4.89916 19.2134 4.89916 19.6C4.89916 19.9869 5.21254 20.3 5.59904 20.3H19.5967C19.9832 20.3 20.2965 19.9869 20.2965 19.6Z" fill="#382D2D"/>
<path d="M27.2953 18.9H22.3962C22.0097 18.9 21.6963 19.2134 21.6963 19.6C21.6963 19.9869 22.0097 20.3 22.3962 20.3H27.2953C27.6818 20.3 27.9952 19.9869 27.9952 19.6C27.9952 19.2134 27.6818 18.9 27.2953 18.9Z" fill="#382D2D"/>
<path d="M12.5978 23.8C12.9844 23.8 13.2977 23.4869 13.2977 23.1C13.2977 22.7134 12.9844 22.4 12.5978 22.4H5.59904C5.21254 22.4 4.89916 22.7134 4.89916 23.1C4.89916 23.4869 5.21254 23.8 5.59904 23.8H12.5978Z" fill="#382D2D"/>
<path d="M15.3974 23.8H20.2965C20.683 23.8 20.9964 23.4869 20.9964 23.1C20.9964 22.7134 20.683 22.4 20.2965 22.4H15.3974C15.0109 22.4 14.6975 22.7134 14.6975 23.1C14.6975 23.4869 15.0109 23.8 15.3974 23.8Z" fill="#382D2D"/>
<path d="M31.4946 32.2C31.1081 32.2 30.7947 32.5134 30.7947 32.9V39.9C30.7947 40.2869 30.4814 40.6 30.0949 40.6H2.09964C1.71314 40.6 1.39976 40.2869 1.39976 39.9V2.1C1.39976 1.71343 1.71314 1.4 2.09964 1.4H30.0949C30.4814 1.4 30.7947 1.71343 30.7947 2.1V15.2462C30.7947 15.6328 31.1081 15.9462 31.4946 15.9462C31.8811 15.9462 32.1945 15.6328 32.1945 15.2462V2.1C32.1945 0.940283 31.2544 0 30.0949 0H2.09964C0.940123 0 0 0.940283 0 2.1V39.9C0 41.0601 0.940123 42 2.09964 42H30.0949C31.2544 42 32.1945 41.0601 32.1945 39.9V32.9C32.1945 32.5134 31.8811 32.2 31.4946 32.2Z" fill="#382D2D"/>
</svg>
