<svg width="38" height="44" viewBox="0 0 38 44" fill="none" xmlns="http://www.w3.org/2000/svg">
<path d="M25.6006 11.8425H5.10258C4.7548 11.8425 4.4729 12.1323 4.4729 12.4898C4.4729 12.8473 4.7548 13.1371 5.10258 13.1371H25.6007C25.9485 13.1371 26.2304 12.8473 26.2304 12.4898C26.2304 12.1323 25.9484 11.8425 25.6006 11.8425Z" fill="#382D2D"/>
<path d="M5.10258 8.64712H15.3516C15.6993 8.64712 15.9812 8.35734 15.9812 7.99984C15.9812 7.64234 15.6993 7.35256 15.3516 7.35256H5.10258C4.7548 7.35256 4.4729 7.64234 4.4729 7.99984C4.4729 8.35742 4.7548 8.64712 5.10258 8.64712Z" fill="#382D2D"/>
<path d="M25.6006 15.8208H5.10258C4.7548 15.8208 4.4729 16.1105 4.4729 16.468C4.4729 16.8255 4.7548 17.1153 5.10258 17.1153H25.6007C25.9485 17.1153 26.2304 16.8255 26.2304 16.468C26.2303 16.1105 25.9484 15.8208 25.6006 15.8208Z" fill="#382D2D"/>
<path d="M9.77195 39.5027H3.21203C2.13534 39.5027 1.25928 38.6023 1.25928 37.4955V3.30181C1.25928 2.19502 2.13534 1.29448 3.21203 1.29448H22.1105C22.1716 1.29448 22.2317 1.30023 22.2911 1.30848V5.34531C22.2911 7.16599 23.7321 8.64712 25.5031 8.64712H29.4301C29.4382 8.70831 29.4438 8.7701 29.4438 8.83283V19.8553C29.4438 20.2128 29.7257 20.5025 30.0734 20.5025C30.4212 20.5025 30.7031 20.2128 30.7031 19.8553V8.83292C30.7031 8.1229 30.4341 7.45534 29.9457 6.95321L23.939 0.778594C23.4506 0.276547 22.8012 0 22.1105 0H3.21203C1.44086 0 0 1.48122 0 3.30181V37.4955C0 39.3161 1.44095 40.7972 3.21203 40.7972H9.77195C10.1197 40.7972 10.4016 40.5074 10.4016 40.1499C10.4016 39.7924 10.1197 39.5027 9.77195 39.5027ZM28.5533 7.35264H25.5032C24.4265 7.35264 23.5505 6.4521 23.5505 5.34531V2.20997L28.5533 7.35264Z" fill="#382D2D"/>
<path d="M37.8067 31.6877L32.4715 22.4305C32.0826 21.7555 31.2364 21.5324 30.5795 21.9325L29.2817 22.7228C28.2744 23.3362 27.8487 24.5776 28.1945 25.6777C27.7573 25.8406 27.2779 25.838 26.8365 25.6626C25.8119 25.3312 25.0329 24.6646 23.7464 24.9991C21.5619 25.5708 21.6282 25.5422 21.4306 25.6118C20.1515 24.8632 19.3826 24.6404 18.0248 25.1804L16.8144 25.6614C16.254 25.884 15.6366 25.8312 15.1187 25.5158L14.7884 25.3156C14.9496 24.3229 14.5213 23.2752 13.6144 22.723C13.6144 22.723 13.6144 22.723 13.6143 22.7229L12.3167 21.9326C11.6616 21.5338 10.8129 21.7571 10.4248 22.4305L5.08938 31.6877C4.70055 32.3625 4.91691 33.2326 5.57368 33.6325L6.87133 34.4228C7.264 34.662 7.69555 34.7757 8.12192 34.7757C8.59736 34.7757 9.06611 34.634 9.46689 34.3673L9.73734 34.5313L9.16634 35.3489C8.48592 36.3232 8.70211 37.6781 9.65014 38.3776C10.0885 38.7011 10.6393 38.8488 11.2089 38.7569C11.2993 39.2999 11.5887 39.8082 12.0573 40.1541C12.4975 40.479 13.0458 40.6269 13.6163 40.5345C13.707 41.0771 13.9962 41.5849 14.4646 41.9306C15.0942 42.3951 15.8768 42.4488 16.529 42.1625C16.6717 42.5435 16.9197 42.8876 17.2658 43.143C18.1693 43.8097 19.414 43.6358 20.1161 42.7721L21.6334 43.6961C22.6369 44.3074 23.9316 43.9677 24.5266 42.935C24.6788 42.671 24.7731 42.3833 24.8077 42.0876L24.8111 42.0897C25.8131 42.6997 27.1107 42.3582 27.7043 41.3285C27.8762 41.0302 27.9704 40.7066 27.9933 40.3824C28.8764 40.6106 29.8389 40.2293 30.3263 39.3837C30.4863 39.1063 30.579 38.8066 30.6095 38.5051C31.556 38.8869 32.6623 38.5179 33.1969 37.5904C33.4844 37.0916 33.5657 36.5075 33.4258 35.9458C33.3458 35.6244 33.1987 35.3326 32.9967 35.0862L33.8331 34.5839C34.5406 34.8825 35.348 34.8347 36.0247 34.4227L37.3221 33.6324C37.9789 33.2328 38.1959 32.3629 37.8067 31.6877ZM7.51322 33.3091L6.21556 32.5188C6.15788 32.4836 6.13874 32.4068 6.17284 32.3475L11.5083 23.09C11.5426 23.0305 11.6176 23.0111 11.675 23.0462L12.9725 23.8364C13.5491 24.1876 13.7295 24.9478 13.3941 25.5297L9.16049 32.8757C8.82258 33.4621 8.08371 33.6564 7.51322 33.3091ZM10.3845 37.326C10.0021 37.0438 9.91466 36.4971 10.1894 36.1038L11.0286 34.9021C11.296 34.5192 11.8288 34.4145 12.2176 34.7014C12.5992 34.983 12.6868 35.5312 12.4129 35.9235L11.5736 37.1253C11.2996 37.5177 10.766 37.6075 10.3845 37.326ZM12.7918 39.1026C12.4101 38.8209 12.3226 38.2725 12.5966 37.8803L13.4358 36.6786C13.4358 36.6786 13.4358 36.6786 13.4358 36.6786C13.4358 36.6786 13.4358 36.6785 13.4359 36.6785L14.3621 35.3523C14.4949 35.1623 14.6916 35.0366 14.9162 34.9988C14.9628 34.9909 15.0095 34.9871 15.0559 34.9871C15.2327 34.9871 15.4046 35.0436 15.5511 35.1516C15.7359 35.2881 15.8581 35.4902 15.8949 35.721C15.9318 35.952 15.879 36.1837 15.7462 36.3737L13.9807 38.9019C13.7063 39.295 13.1743 39.385 12.7918 39.1026ZM15.1991 40.879C14.8176 40.5975 14.73 40.0495 15.0034 39.6573C15.0035 39.6572 15.0037 39.657 15.0038 39.6568L16.7694 37.1288C17.0431 36.7366 17.5769 36.6465 17.9583 36.928C18.34 37.2097 18.4275 37.7579 18.1535 38.1502L17.3691 39.2735C17.3691 39.2735 17.3691 39.2735 17.369 39.2736L16.388 40.6784C16.114 41.0707 15.5808 41.1608 15.1991 40.879ZM18.0002 42.0914C17.6188 41.8099 17.5311 41.2622 17.8044 40.8699L18.392 40.0286C18.6659 39.6362 19.1995 39.5465 19.581 39.8279C19.9626 40.1094 20.0502 40.6578 19.7762 41.0501L19.1891 41.8907C18.9152 42.2831 18.3817 42.3731 18.0002 42.0914ZM32.1136 36.9307C31.874 37.3464 31.3504 37.4842 30.9459 37.238C30.261 36.821 25.8432 34.1305 25.3722 33.8437C25.0729 33.6615 24.6868 33.763 24.5095 34.0705C24.3323 34.3781 24.431 34.7751 24.7303 34.9573L28.944 37.5235L28.9441 37.5236C29.3486 37.7699 29.4836 38.3066 29.243 38.724C29.0033 39.1399 28.4794 39.2775 28.0751 39.0314C26.5166 38.0824 25.2512 37.3117 23.8591 36.4639C23.5598 36.2817 23.1737 36.3832 22.9965 36.6908C22.8192 36.9983 22.918 37.3954 23.2172 37.5776L26.3219 39.4684L26.3226 39.4688C26.7274 39.7159 26.861 40.2523 26.621 40.6689C26.3813 41.0848 25.8575 41.2225 25.453 40.9762L23.7867 39.9615C23.7866 39.9615 23.7863 39.9614 23.7861 39.9612C23.786 39.9611 23.7858 39.961 23.7856 39.9609L22.5697 39.2203C22.2704 39.0381 21.8842 39.1396 21.707 39.4472C21.5298 39.7548 21.6285 40.1518 21.9277 40.334L23.1439 41.0747C23.1441 41.0748 23.1443 41.075 23.1444 41.075C23.549 41.3213 23.6839 41.8579 23.4434 42.2754C23.2037 42.6913 22.6799 42.829 22.2754 42.5827L20.8566 41.7188C21.4648 40.7541 21.2335 39.454 20.3155 38.7766C20.0458 38.5778 19.7456 38.4539 19.4386 38.4008C19.7643 37.5055 19.4835 36.4604 18.6927 35.8769C18.2245 35.5312 17.664 35.4118 17.1349 35.4971C17.0408 34.9312 16.7398 34.4355 16.2856 34.1004C15.4313 33.4703 14.2704 33.5913 13.5534 34.337C13.4077 34.074 13.2065 33.838 12.952 33.6502C12.2422 33.1265 11.3206 33.1216 10.6178 33.5627L10.3293 33.3877L14.2895 26.5162L14.478 26.6305C15.3107 27.1375 16.3268 27.2432 17.2684 26.8689L18.4788 26.3879C19.1715 26.1127 19.5534 26.0948 20.2385 26.4271C19.7903 26.9448 19.5242 27.6244 19.5242 28.357V31.2269C19.5242 31.9891 20.127 32.6097 20.868 32.6102H20.8698C21.613 32.6102 22.3119 32.3128 22.8377 31.7726C23.1442 31.4578 23.3704 31.0824 23.506 30.6726C24.319 31.1676 31.0361 35.2564 31.8148 35.7307C32.0107 35.85 32.1497 36.0405 32.2061 36.2672C32.2625 36.4936 32.2297 36.7294 32.1136 36.9307ZM36.6806 32.5188L35.3829 33.3091C34.8124 33.6563 34.0735 33.4618 33.7357 32.8757L31.7514 29.4327C31.5741 29.1251 31.1877 29.0236 30.8887 29.2056C30.5895 29.3878 30.4907 29.7848 30.6678 30.0924L32.6522 33.5356C32.6896 33.6004 32.7301 33.662 32.7721 33.7221L32.2204 34.0533C32.1089 34.1212 32.0016 34.196 31.899 34.2772L23.3447 29.0698C22.9256 28.8149 22.3943 29.1257 22.3943 29.6267C22.3877 29.6654 22.4593 30.3307 21.9474 30.8567C21.6595 31.1524 21.2768 31.3154 20.8697 31.3154C20.8694 31.3154 20.8691 31.3154 20.8687 31.3154C20.8217 31.3154 20.7834 31.2755 20.7834 31.2265V28.3566C20.7834 27.6069 21.2851 26.9744 21.9637 26.7978L24.0551 26.2537C24.8139 26.0566 25.2429 26.4731 26.3791 26.8685C27.1679 27.1821 28.0256 27.1628 28.7868 26.8286L29.1669 27.4881C29.3442 27.7958 29.7304 27.8972 30.0296 27.7151C30.3288 27.5329 30.4276 27.1359 30.2504 26.8283L29.5019 25.5295C29.1632 24.9419 29.3519 24.1846 29.9235 23.8363L31.2211 23.0461C31.2778 23.0115 31.3528 23.0292 31.3879 23.09L36.7231 32.3473C36.7576 32.407 36.7386 32.4834 36.6806 32.5188Z" fill="#382D2D"/>
</svg>
