<svg width="18" height="18" viewBox="0 0 18 18" fill="none" xmlns="http://www.w3.org/2000/svg">
<path d="M9 0C4.0374 0 0 4.0374 0 9C0 13.9626 4.0374 18 9 18C13.9626 18 18 13.9626 18 9C18 4.0374 13.9626 0 9 0ZM9 16.085C5.09339 16.085 1.91486 12.9068 1.91486 9C1.91486 5.09321 5.09339 1.91505 9 1.91505C12.9066 1.91505 16.0851 5.09321 16.0851 9C16.0851 12.9068 12.9066 16.085 9 16.085Z" fill="#DB812D"/>
<path d="M13.6905 8.72213H9.64586V3.85902C9.64586 3.44978 9.31406 3.11798 8.90482 3.11798C8.49558 3.11798 8.16377 3.44978 8.16377 3.85902V9.46318C8.16377 9.87242 8.49558 10.2042 8.90482 10.2042H13.6905C14.0997 10.2042 14.4315 9.87242 14.4315 9.46318C14.4315 9.05394 14.0997 8.72213 13.6905 8.72213Z" fill="#DB812D"/>
</svg>
