<svg width="21" height="21" viewBox="0 0 21 21" fill="none" xmlns="http://www.w3.org/2000/svg">
<path d="M13.68 9.18167C13.68 9.18167 14.7455 8.21375 13.7377 7.20539C12.7298 6.19702 11.7042 7.20488 11.7042 7.20488L9.94692 8.96321C8.17653 10.7352 7.958 13.3982 9.72821 15.1686C11.4993 16.9406 14.223 16.7838 15.9927 15.012L18.9575 12.0471C21.6808 9.32236 21.6808 4.88847 18.9575 2.16381L18.8383 2.04455C16.1136 -0.681517 11.6819 -0.681517 8.95857 2.04455L2.04301 8.96271C-0.681003 11.6874 -0.681003 16.1213 2.04301 18.8474L2.16221 18.9666C4.28278 21.0878 7.47149 21.5935 10.1628 20.2754C10.8853 19.9216 11.6705 19.2515 11.1522 18.3116C10.6039 17.3172 9.64063 17.5338 9.13131 17.7661C7.61143 18.3926 5.37079 18.2227 4.13801 16.99L4.01881 16.8694C2.3842 15.2353 2.3842 12.5747 4.01881 10.9394L10.9344 4.02116C12.569 2.38573 15.2282 2.38573 16.8614 4.02116L16.982 4.14042C18.6152 5.77584 18.6152 8.43503 16.982 10.0705L14.017 13.0354C13.3362 13.7166 12.3848 13.8734 11.704 13.192C11.0231 12.5106 11.2418 11.6212 11.9227 10.9399L13.68 9.18167Z" fill="#DB812D"/>
</svg>
