<svg width="16" height="18" viewBox="0 0 16 18" fill="none" xmlns="http://www.w3.org/2000/svg">
<path d="M16 18H14.0747C14.0747 14.9231 11.3505 12.4207 7.99952 12.4207C4.64858 12.4207 1.92528 14.924 1.92528 18H0C0 13.9163 3.58968 10.5969 8.00048 10.5969C12.4103 10.5969 16 13.9163 16 18Z" fill="#DB812D"/>
<path d="M7.99939 10.004C5.08933 10.004 2.72028 7.7588 2.72028 5.002C2.71932 2.24429 5.08837 0 7.99939 0C10.9114 0 13.2804 2.24338 13.2804 5.002C13.2804 7.76062 10.9114 10.004 7.99939 10.004ZM7.99939 1.82388C6.1492 1.82388 4.64459 3.24925 4.64459 5.002C4.64459 6.75475 6.1492 8.18011 7.99939 8.18011C9.85054 8.18011 11.3551 6.75475 11.3551 5.002C11.3551 3.24925 9.84861 1.82388 7.99939 1.82388Z" fill="#DB812D"/>
</svg>
