<svg width="21" height="21" viewBox="0 0 21 21" fill="none" xmlns="http://www.w3.org/2000/svg">
<path d="M20.5917 16.6984L18.2636 15.1462L16.194 13.7667C15.7946 13.501 15.2578 13.5881 14.963 13.9666L13.6824 15.6129C13.4073 15.9701 12.9124 16.0728 12.5179 15.8544C11.649 15.371 10.6214 14.9159 8.3542 12.6458C6.08696 10.3756 5.62895 9.351 5.14558 8.48205C4.92718 8.08757 5.02984 7.59272 5.38708 7.31768L7.03339 6.03706C7.41184 5.74224 7.49899 5.20548 7.23326 4.80603L5.89616 2.80019L4.30161 0.408348C4.03022 0.0012313 3.48693 -0.120994 3.06734 0.130634L1.22839 1.23386C0.731404 1.52667 0.366082 1.99949 0.208091 2.5543C-0.294796 4.3878 -0.396186 8.43243 6.08586 14.9145C12.5679 21.3965 16.6122 21.2948 18.4457 20.7918C19.0005 20.6339 19.4733 20.2686 19.7661 19.7716L20.8693 17.9326C21.121 17.513 20.9988 16.9698 20.5917 16.6984Z" fill="#DB812D"/>
</svg>
