<svg width="24" height="23" viewBox="0 0 24 23" fill="none" xmlns="http://www.w3.org/2000/svg">
<path d="M0.979675 22.7917L2.57415 17.1287C1.54881 15.3868 1.00896 13.4049 1.00896 11.3689C1.00896 5.10007 6.10903 0 12.3779 0C18.6467 0 23.7467 5.10007 23.7467 11.3689C23.7467 17.6377 18.6467 22.7378 12.3779 22.7378C10.4245 22.7378 8.51185 22.2378 6.8198 21.2884L0.979675 22.7917ZM7.11837 19.2201L7.46637 19.4326C8.94163 20.3332 10.64 20.8093 12.3779 20.8093C17.5833 20.8093 21.8182 16.5743 21.8182 11.3689C21.8182 6.16348 17.5833 1.92854 12.3779 1.92854C7.17244 1.92854 2.9375 6.16348 2.9375 11.3689C2.9375 13.1827 3.453 14.944 4.42812 16.4625L4.66248 16.8274L3.74428 20.0886L7.11837 19.2201Z" fill="#EDEDED"/>
</svg>
