<svg width="27" height="21" viewBox="0 0 27 21" fill="none" xmlns="http://www.w3.org/2000/svg">
<path d="M26.1017 3.27174C25.5627 2.71377 24.8184 2.38406 23.9715 2.38406H19.711V2.33333C19.711 1.69928 19.4544 1.09058 19.0181 0.684783C18.5817 0.253623 17.9914 0 17.3498 0H9.65019C8.98289 0 8.39259 0.253623 7.95627 0.684783C7.51996 1.11594 7.26331 1.69928 7.26331 2.33333V2.38406H3.02852C2.18156 2.38406 1.43726 2.71377 0.898289 3.27174C0.359316 3.80435 0 4.56522 0 5.37681V18.0072C0 18.8442 0.33365 19.5797 0.898289 20.1123C1.43726 20.6449 2.20722 21 3.02852 21H23.9715C24.8184 21 25.5627 20.6703 26.1017 20.1123C26.6407 19.5797 27 18.8188 27 18.0072V5.37681C27 4.53986 26.6664 3.80435 26.1017 3.27174ZM25.6654 18.0072H25.6397C25.6397 18.4638 25.4601 18.8696 25.1521 19.1739C24.8441 19.4783 24.4335 19.6558 23.9715 19.6558H3.02852C2.56654 19.6558 2.15589 19.4783 1.84791 19.1739C1.53992 18.8696 1.36027 18.4638 1.36027 18.0072V5.37681C1.36027 4.92029 1.53992 4.51449 1.84791 4.21014C2.15589 3.9058 2.56654 3.72826 3.02852 3.72826H7.98194C8.36692 3.72826 8.6749 3.42391 8.6749 3.04348V2.30797C8.6749 2.02899 8.77757 1.77536 8.95722 1.59783C9.13688 1.42029 9.39354 1.31884 9.67586 1.31884H17.3498C17.6321 1.31884 17.8888 1.42029 18.0684 1.59783C18.2481 1.77536 18.3508 2.02899 18.3508 2.30797V3.04348C18.3508 3.42391 18.6587 3.72826 19.0437 3.72826H23.9971C24.4591 3.72826 24.8698 3.9058 25.1778 4.21014C25.4857 4.51449 25.6654 4.92029 25.6654 5.37681V18.0072Z" fill="white"/>
<path d="M13.5 5.4529C11.7548 5.4529 10.1635 6.16304 9.03422 7.27899C7.87928 8.42029 7.18631 9.96739 7.18631 11.692C7.18631 13.4167 7.90494 14.9891 9.03422 16.1051C10.1892 17.2464 11.7548 17.9312 13.5 17.9312C15.2452 17.9312 16.8365 17.221 17.9658 16.1051C19.1207 14.9638 19.8137 13.4167 19.8137 11.692C19.8137 9.96739 19.0951 8.39493 17.9658 7.27899C16.8365 6.16304 15.2452 5.4529 13.5 5.4529ZM16.9905 15.1667C16.0922 16.029 14.8603 16.587 13.5 16.587C12.1397 16.587 10.9078 16.029 10.0095 15.1667C9.11122 14.279 8.57224 13.0616 8.57224 11.7174C8.57224 10.3732 9.13688 9.1558 10.0095 8.26812C10.9078 7.38043 12.1397 6.84783 13.5 6.84783C14.8603 6.84783 16.0922 7.4058 16.9905 8.26812C17.8888 9.1558 18.4278 10.3732 18.4278 11.7174C18.4534 13.0616 17.8888 14.279 16.9905 15.1667Z" fill="white"/>
<path d="M22.6369 7.91304C23.3314 7.91304 23.8945 7.35664 23.8945 6.67029C23.8945 5.98394 23.3314 5.42754 22.6369 5.42754C21.9423 5.42754 21.3793 5.98394 21.3793 6.67029C21.3793 7.35664 21.9423 7.91304 22.6369 7.91304Z" fill="white"/>
</svg>
