<svg width="24" height="24" viewBox="0 0 24 24" fill="none" xmlns="http://www.w3.org/2000/svg">
<path d="M22.9879 5.72721L22.9811 5.69972C22.425 3.45191 19.9183 1.03989 17.6163 0.538084L17.5903 0.532737C13.8669 -0.177579 10.0915 -0.177579 6.36882 0.532737L6.34209 0.538084C4.04082 1.03989 1.53409 3.45191 0.97729 5.69972L0.97118 5.72721C0.283777 8.86635 0.283777 12.0498 0.97118 15.1889L0.97729 15.2164C1.51033 17.3683 3.83039 19.6695 6.04651 20.3024V22.8115C6.04651 23.7197 7.15322 24.1657 7.78258 23.5104L10.3248 20.8678C10.8762 20.8987 11.4279 20.9158 11.9796 20.9158C13.8539 20.9158 15.729 20.7386 17.5903 20.3835L17.6163 20.3781C19.9183 19.8763 22.425 17.4643 22.9811 15.2165L22.9879 15.189C23.6753 12.0498 23.6753 8.86635 22.9879 5.72721ZM20.9761 14.7337C20.6049 16.2002 18.7016 18.0233 17.1893 18.3602C15.2095 18.7366 13.2141 18.8975 11.2206 18.8423C11.1809 18.8413 11.1428 18.8566 11.1152 18.885C10.8323 19.1754 9.25897 20.7905 9.25897 20.7905L7.28459 22.8168C7.14024 22.9673 6.88666 22.8649 6.88666 22.6572V18.5005C6.88666 18.4319 6.83763 18.3735 6.77019 18.3603L6.76904 18.3601C5.25676 18.0232 3.35418 16.2001 2.98222 14.7336C2.36355 11.8962 2.36355 9.0198 2.98222 6.18235C3.35418 4.71589 5.25676 2.89274 6.76904 2.55592C10.2267 1.8983 13.7324 1.8983 17.1893 2.55592C18.7024 2.89274 20.6049 4.71589 20.9761 6.18235C21.5955 9.01987 21.5955 11.8963 20.9761 14.7337Z" fill="#EDEDED"/>
</svg>
