<svg width="22" height="22" viewBox="0 0 22 22" fill="none" xmlns="http://www.w3.org/2000/svg">
<path d="M15.6072 0H6.38975C2.86643 0 0 2.86643 0 6.38975V15.6071C0 19.1305 2.86643 21.9969 6.38975 21.9969H15.6071C19.1305 21.9969 21.9969 19.1305 21.9969 15.6072V6.38975C21.9969 2.86643 19.1305 0 15.6072 0ZM20.2784 15.6071C20.2784 18.1829 18.1829 20.2784 15.6072 20.2784H6.38975C3.81401 20.2784 1.71851 18.1829 1.71851 15.6072V6.38975C1.71851 3.81401 3.81401 1.71851 6.38975 1.71851H15.6071C18.1829 1.71851 20.2784 3.81401 20.2784 6.38975V15.6071Z" fill="#EDEDED"/>
<path d="M10.9984 5.0696C7.72924 5.0696 5.0696 7.72924 5.0696 10.9984C5.0696 14.2676 7.72924 16.9273 10.9984 16.9273C14.2676 16.9273 16.9273 14.2676 16.9273 10.9984C16.9273 7.72924 14.2676 5.0696 10.9984 5.0696ZM10.9984 15.2088C8.67687 15.2088 6.7881 13.32 6.7881 10.9984C6.7881 8.67687 8.67687 6.7881 10.9984 6.7881C13.32 6.7881 15.2088 8.67687 15.2088 10.9984C15.2088 13.32 13.32 15.2088 10.9984 15.2088Z" fill="#EDEDED"/>
<path d="M17.0132 5.84293C17.4878 5.84293 17.8725 5.45822 17.8725 4.98367C17.8725 4.50912 17.4878 4.12442 17.0132 4.12442C16.5387 4.12442 16.154 4.50912 16.154 4.98367C16.154 5.45822 16.5387 5.84293 17.0132 5.84293Z" fill="#EDEDED"/>
</svg>
