<svg width="20" height="15" viewBox="0 0 20 15" fill="none" xmlns="http://www.w3.org/2000/svg">
<path d="M18.2422 0H1.75781C1.48723 0 1.23391 0.0655001 1.00473 0.173462L9.96094 8.99189L11.9683 7.09238C11.9683 7.09238 11.9685 7.09219 11.9685 7.09212C11.9686 7.09204 11.9687 7.09196 11.9687 7.09196L18.9955 0.173615C18.7663 0.0655769 18.5129 0 18.2422 0Z" fill="#6CBAC4"/>
<path d="M19.8241 0.989538L13.2114 7.50008L19.8238 14.0107C19.9335 13.7851 20 13.5357 20 13.2692V1.73077C20 1.4645 19.9336 1.21512 19.8241 0.989538Z" fill="#6CBAC4"/>
<path d="M0.176172 0.98927C0.0665234 1.21492 0 1.46435 0 1.73077V13.2692C0 13.5355 0.0664453 13.785 0.176016 14.0105L6.78863 7.5L0.176172 0.98927Z" fill="#6CBAC4"/>
<path d="M12.3829 8.31589L10.3752 10.2156C10.2608 10.3283 10.1109 10.3847 9.96098 10.3847C9.81109 10.3847 9.66113 10.3283 9.54672 10.2156L7.61719 8.31581L1.00445 14.8264C1.23367 14.9344 1.48715 15 1.75781 15H18.2422C18.5128 15 18.7661 14.9345 18.9953 14.8265L12.3829 8.31589Z" fill="#6CBAC4"/>
</svg>
