<svg width="112" height="112" viewBox="0 0 112 112" fill="none" xmlns="http://www.w3.org/2000/svg">
<path d="M102.667 33.6H82.1333V24.2667C82.1333 24.2257 82.1124 24.1901 82.1087 24.1491C82.0996 23.9859 82.0677 23.8237 82.0139 23.6697C81.993 23.6095 81.9784 23.5521 81.952 23.4937C81.8617 23.2905 81.735 23.1055 81.5792 22.9469L59.1792 0.546875C59.0197 0.390104 58.8337 0.264323 58.6305 0.173177C58.574 0.149479 58.5202 0.133984 58.4618 0.113932C58.3033 0.0592447 58.1374 0.0264322 57.9697 0.0164062C57.9396 0.0209636 57.9059 0 57.8667 0H9.33333C4.18086 0.00638022 0.00638022 4.18086 0 9.33333V95.2C0.00638022 100.352 4.18086 104.527 9.33333 104.533H48.7202C49.6134 108.876 53.4333 111.995 57.8667 112H102.667C107.819 111.994 111.994 107.819 112 102.667V42.9333C111.994 37.7809 107.819 33.6064 102.667 33.6ZM75.7604 22.4H61.6C60.5691 22.4 59.7333 21.5642 59.7333 20.5333V6.37292L75.7604 22.4ZM3.73333 95.2V9.33333C3.73333 6.24075 6.24075 3.73333 9.33333 3.73333H56V20.5333C56 23.6259 58.5074 26.1333 61.6 26.1333H78.4V33.6H57.8667C52.7142 33.6064 48.5397 37.7809 48.5333 42.9333V100.8H9.33333C6.24075 100.8 3.73333 98.2926 3.73333 95.2ZM108.267 102.667C108.267 105.759 105.759 108.267 102.667 108.267H57.8667C54.7741 108.267 52.2667 105.759 52.2667 102.667V42.9333C52.2667 39.8408 54.7741 37.3333 57.8667 37.3333H102.667C105.759 37.3333 108.267 39.8408 108.267 42.9333V102.667Z" fill="white"/>
<path d="M95.2 41.0667H65.3333C60.1809 41.073 56.0064 45.2475 56 50.4V57.8667C56.0064 63.0191 60.1809 67.1936 65.3333 67.2H95.2C100.352 67.1936 104.527 63.0191 104.533 57.8667V50.4C104.527 45.2475 100.352 41.073 95.2 41.0667ZM100.8 57.8667C100.8 60.9592 98.2926 63.4667 95.2 63.4667H65.3333C62.2408 63.4667 59.7333 60.9592 59.7333 57.8667V50.4C59.7333 47.3074 62.2408 44.8 65.3333 44.8H95.2C98.2926 44.8 100.8 47.3074 100.8 50.4V57.8667Z" fill="white"/>
<path d="M63.4667 70.9333C59.3432 70.9333 56 74.2766 56 78.4C56 82.5234 59.3432 85.8667 63.4667 85.8667C67.5901 85.8667 70.9333 82.5234 70.9333 78.4C70.9333 74.2766 67.5901 70.9333 63.4667 70.9333ZM63.4667 82.1333C61.4049 82.1333 59.7333 80.4617 59.7333 78.4C59.7333 76.3383 61.4049 74.6667 63.4667 74.6667C65.5284 74.6667 67.2 76.3383 67.2 78.4C67.2 80.4617 65.5284 82.1333 63.4667 82.1333Z" fill="white"/>
<path d="M80.2667 70.9333C76.1432 70.9333 72.8 74.2766 72.8 78.4C72.8 82.5234 76.1432 85.8667 80.2667 85.8667C84.3901 85.8667 87.7333 82.5234 87.7333 78.4C87.7333 74.2766 84.3901 70.9333 80.2667 70.9333ZM80.2667 82.1333C78.205 82.1333 76.5333 80.4617 76.5333 78.4C76.5333 76.3383 78.205 74.6667 80.2667 74.6667C82.3284 74.6667 84 76.3383 84 78.4C84 80.4617 82.3284 82.1333 80.2667 82.1333Z" fill="white"/>
<path d="M63.4667 89.6C59.3432 89.6 56 92.9432 56 97.0667C56 101.19 59.3432 104.533 63.4667 104.533C67.5901 104.533 70.9333 101.19 70.9333 97.0667C70.9333 92.9432 67.5901 89.6 63.4667 89.6ZM63.4667 100.8C61.4049 100.8 59.7333 99.1284 59.7333 97.0667C59.7333 95.0049 61.4049 93.3333 63.4667 93.3333C65.5284 93.3333 67.2 95.0049 67.2 97.0667C67.2 99.1284 65.5284 100.8 63.4667 100.8Z" fill="white"/>
<path d="M80.2667 89.6C76.1432 89.6 72.8 92.9432 72.8 97.0667C72.8 101.19 76.1432 104.533 80.2667 104.533C84.3901 104.533 87.7333 101.19 87.7333 97.0667C87.7333 92.9432 84.3901 89.6 80.2667 89.6ZM80.2667 100.8C78.205 100.8 76.5333 99.1284 76.5333 97.0667C76.5333 95.0049 78.205 93.3333 80.2667 93.3333C82.3284 93.3333 84 95.0049 84 97.0667C84 99.1284 82.3284 100.8 80.2667 100.8Z" fill="white"/>
<path d="M97.0667 70.9333C92.9432 70.9333 89.6 74.2766 89.6 78.4V97.0667C89.6 101.19 92.9432 104.533 97.0667 104.533C101.19 104.533 104.533 101.19 104.533 97.0667V78.4C104.533 74.2766 101.19 70.9333 97.0667 70.9333ZM100.8 97.0667C100.8 99.1284 99.1284 100.8 97.0667 100.8C95.0049 100.8 93.3333 99.1284 93.3333 97.0667V78.4C93.3333 76.3383 95.0049 74.6667 97.0667 74.6667C99.1284 74.6667 100.8 76.3383 100.8 78.4V97.0667Z" fill="white"/>
<path d="M19.2135 33.0531C19.9427 33.7814 21.124 33.7814 21.8531 33.0531L38.6531 16.2531C39.3604 15.5203 39.3504 14.3564 38.6303 13.6363C37.9103 12.9163 36.7464 12.9062 36.0135 13.6135L19.2135 30.4135C18.4853 31.1427 18.4853 32.324 19.2135 33.0531Z" fill="white"/>
<path d="M29.8667 29.8667C29.8667 32.9592 32.3741 35.4667 35.4667 35.4667C38.5592 35.4667 41.0667 32.9592 41.0667 29.8667C41.0667 26.7741 38.5592 24.2667 35.4667 24.2667C32.3741 24.2667 29.8667 26.7741 29.8667 29.8667ZM37.3333 29.8667C37.3333 30.8975 36.4975 31.7333 35.4667 31.7333C34.4358 31.7333 33.6 30.8975 33.6 29.8667C33.6 28.8358 34.4358 28 35.4667 28C36.4975 28 37.3333 28.8358 37.3333 29.8667Z" fill="white"/>
<path d="M22.4 22.4C25.4926 22.4 28 19.8926 28 16.8C28 13.7074 25.4926 11.2 22.4 11.2C19.3074 11.2 16.8 13.7074 16.8 16.8C16.8 19.8926 19.3074 22.4 22.4 22.4ZM22.4 14.9333C23.4309 14.9333 24.2667 15.7691 24.2667 16.8C24.2667 17.8309 23.4309 18.6667 22.4 18.6667C21.3691 18.6667 20.5333 17.8309 20.5333 16.8C20.5333 15.7691 21.3691 14.9333 22.4 14.9333Z" fill="white"/>
<path d="M13.0667 50.4H35.4667C36.4975 50.4 37.3333 49.5642 37.3333 48.5333C37.3333 47.5025 36.4975 46.6667 35.4667 46.6667H13.0667C12.0358 46.6667 11.2 47.5025 11.2 48.5333C11.2 49.5642 12.0358 50.4 13.0667 50.4Z" fill="white"/>
<path d="M39.2 54.1333H13.0667C12.0358 54.1333 11.2 54.9691 11.2 56C11.2 57.0309 12.0358 57.8667 13.0667 57.8667H39.2C40.2309 57.8667 41.0667 57.0309 41.0667 56C41.0667 54.9691 40.2309 54.1333 39.2 54.1333Z" fill="white"/>
<path d="M20.5333 61.6H13.0667C12.0358 61.6 11.2 62.4358 11.2 63.4667C11.2 64.4975 12.0358 65.3333 13.0667 65.3333H20.5333C21.5642 65.3333 22.4 64.4975 22.4 63.4667C22.4 62.4358 21.5642 61.6 20.5333 61.6Z" fill="white"/>
<path d="M39.2 61.6H28C26.9691 61.6 26.1333 62.4358 26.1333 63.4667C26.1333 64.4975 26.9691 65.3333 28 65.3333H39.2C40.2309 65.3333 41.0667 64.4975 41.0667 63.4667C41.0667 62.4358 40.2309 61.6 39.2 61.6Z" fill="white"/>
</svg>
