<svg width="86" height="102" viewBox="0 0 86 102" fill="none" xmlns="http://www.w3.org/2000/svg">
<path d="M82.9098 12.7757H73.229V3.09108C73.229 1.38656 71.843 0 70.1391 0H66.9463C65.2424 0 63.8564 1.38656 63.8564 3.09108V12.7757H19.0541C17.3502 12.7757 15.9639 14.1623 15.9639 15.8668V29.8262L2.54969 16.4073C2.12252 15.9797 1.47987 15.8522 0.922054 16.0833C0.363843 16.3146 0 16.8595 0 17.4637V78.1483C0 78.9735 0.668738 79.6425 1.49361 79.6425H15.9639V84.5359C15.9639 85.3611 16.6326 86.03 17.4575 86.03C18.2824 86.03 18.9511 85.3611 18.9511 84.5359V79.6425H62.1566C62.7608 79.6425 63.3053 79.2785 63.5365 78.7201C63.7677 78.1617 63.6399 77.5192 63.2127 77.0919L18.9513 32.8145V15.8668C18.9513 15.81 18.9975 15.764 19.0543 15.764H63.8565V51C63.8565 51.1389 63.8759 51.2769 63.9141 51.4106L67.1068 62.5894C67.2901 63.2308 67.8761 63.6729 68.5429 63.6729C69.2096 63.6729 69.7959 63.2306 69.9789 62.5894L73.1717 51.4106C73.2097 51.2771 73.2292 51.1389 73.2292 51V23.8517C73.2292 23.0265 72.5605 22.3575 71.7356 22.3575C70.9108 22.3575 70.242 23.0265 70.242 23.8517V47.9089H66.8438V9.37603H70.242V17.4633C70.242 18.2885 70.9108 18.9575 71.7356 18.9575C72.5605 18.9575 73.2292 18.2885 73.2292 17.4633V15.764H82.91C82.9668 15.764 83.0128 15.81 83.0128 15.8668V90.924C83.0128 95.3836 79.3861 99.0117 74.928 99.0117C70.9267 99.0117 67.4856 96.029 66.924 92.0735C66.7099 90.5664 65.4005 89.4299 63.8783 89.4299H9.63756C8.70236 89.4299 7.82392 89.8449 7.22767 90.5682C6.65154 91.2675 6.41873 92.1713 6.5892 93.0483C7.59729 98.2354 12.1683 102 17.4577 102H74.928C81.033 102 86 97.0315 86 90.924V15.8668C85.9998 14.1623 84.6137 12.7757 82.9098 12.7757ZM58.5509 76.6544H2.98742V21.071L58.5509 76.6544ZM70.2114 50.8972L68.5427 56.7401L66.8738 50.8972H70.2114ZM70.2418 6.38775H66.8436V3.09108C66.8436 3.0343 66.8896 2.98828 66.9463 2.98828H70.1391C70.1958 2.98828 70.2418 3.0343 70.2418 3.09108V6.38775ZM17.4577 99.0117C13.595 99.0117 10.2575 96.2639 9.52086 92.4883C9.52624 92.4714 9.57164 92.4182 9.63776 92.4182H63.8783C63.9233 92.4182 63.9603 92.4501 63.9665 92.4939C64.3315 95.0642 65.5832 97.3347 67.3833 99.0117H17.4577Z" fill="white"/>
<path d="M40.8633 67.5101L12.1281 38.7648C11.7009 38.3373 11.0583 38.2098 10.5005 38.4408C9.94226 38.6721 9.57841 39.217 9.57841 39.8212V68.5665C9.57841 69.3917 10.2472 70.0607 11.072 70.0607H39.8073C40.4115 70.0607 40.9559 69.6967 41.1872 69.1383C41.4184 68.5799 41.2905 67.9374 40.8633 67.5101ZM15.9639 67.0724H12.5656V43.4285L15.9639 46.828V67.0724ZM18.9513 67.0724V49.8162L36.2015 67.0724H18.9513Z" fill="white"/>
</svg>
