<svg width="115" height="26" viewBox="0 0 115 26" fill="none" xmlns="http://www.w3.org/2000/svg">
<path d="M14.8999 0H6.10017C2.73652 0 0 2.73652 0 6.10017V14.8998C0 18.2635 2.73652 21 6.10017 21H14.8998C18.2635 21 21 18.2635 21 14.8999V6.10017C21 2.73652 18.2635 0 14.8999 0ZM19.3594 14.8998C19.3594 17.3588 17.3588 19.3594 14.8999 19.3594H6.10017C3.64116 19.3594 1.64062 17.3588 1.64062 14.8999V6.10017C1.64062 3.64116 3.64116 1.64062 6.10017 1.64062H14.8998C17.3588 1.64062 19.3594 3.64116 19.3594 6.10017V14.8998Z" fill="#DB812D"/>
<path d="M10.5 4.83984C7.37896 4.83984 4.83984 7.37896 4.83984 10.5C4.83984 13.621 7.37896 16.1602 10.5 16.1602C13.621 16.1602 16.1602 13.621 16.1602 10.5C16.1602 7.37896 13.621 4.83984 10.5 4.83984ZM10.5 14.5195C8.28364 14.5195 6.48047 12.7164 6.48047 10.5C6.48047 8.28364 8.28364 6.48047 10.5 6.48047C12.7164 6.48047 14.5195 8.28364 14.5195 10.5C14.5195 12.7164 12.7164 14.5195 10.5 14.5195Z" fill="#DB812D"/>
<path d="M16.2422 5.57812C16.6952 5.57812 17.0625 5.21086 17.0625 4.75781C17.0625 4.30477 16.6952 3.9375 16.2422 3.9375C15.7891 3.9375 15.4219 4.30477 15.4219 4.75781C15.4219 5.21086 15.7891 5.57812 16.2422 5.57812Z" fill="#DB812D"/>
<path d="M35.3234 3.07994C33.6041 3.77509 31.7139 5.7365 31.117 8.20038C30.361 11.3212 33.5071 12.641 33.7651 12.2089C34.0688 11.7003 33.2014 11.5284 33.0228 9.90906C32.7921 7.8176 33.7995 5.48063 35.0675 4.45523C35.3032 4.26473 35.2919 4.52988 35.2919 5.02033C35.2919 5.89753 35.2417 13.7707 35.2417 15.4141C35.2417 17.6375 35.1465 18.3396 34.9756 19.0332C34.8024 19.7363 34.5241 20.2114 34.7349 20.3945C34.9706 20.5992 35.9768 20.1123 36.5593 19.3276C37.2578 18.3865 37.5023 17.2563 37.5462 16.029C37.5992 14.5494 37.597 12.2017 37.5993 10.8625C37.6014 9.63435 37.6206 6.03795 37.5769 3.87594C37.5663 3.34563 36.0425 2.78927 35.3234 3.07994ZM114.623 14.7605C114.373 14.7605 114.26 15.0086 114.166 15.4263C113.839 16.8787 113.496 17.2065 113.053 17.2065C112.558 17.2065 112.114 16.4874 112 15.0479C111.91 13.9161 111.924 11.8321 112.039 9.75936C112.063 9.33345 111.941 8.91204 110.757 8.49705C110.248 8.31842 109.508 8.05573 109.139 8.9145C108.098 11.3407 107.69 13.2671 107.594 14.0493C107.589 14.0898 107.538 14.098 107.529 14.0034C107.468 13.3768 107.331 12.2378 107.314 9.84519C107.311 9.37834 107.208 8.98096 106.674 8.65563C106.328 8.44438 105.276 8.07115 104.897 8.51534C104.569 8.87861 104.189 9.85625 103.794 11.0151C103.473 11.9569 103.25 12.594 103.25 12.594C103.25 12.594 103.254 10.0526 103.258 9.08863C103.259 8.72495 103.001 8.60363 102.923 8.5818C102.572 8.48354 101.881 8.31938 101.588 8.31938C101.226 8.31938 101.137 8.51466 101.137 8.79919C101.137 8.83644 101.08 12.1452 101.08 14.4588C101.08 14.5592 101.08 14.669 101.081 14.7855C100.88 15.8488 100.231 17.2924 99.525 17.2924C98.818 17.2924 98.4846 16.6889 98.4846 13.9307C98.4846 12.3218 98.5347 11.622 98.5591 10.4583C98.5736 9.78801 98.6011 9.27313 98.5994 9.15645C98.5942 8.79823 97.9524 8.61769 97.6538 8.55082C97.3538 8.48368 97.093 8.45748 96.8894 8.46867C96.6013 8.48436 96.3975 8.66682 96.3975 8.91778C96.3975 9.05233 96.3991 9.30807 96.3991 9.30807C96.0279 8.74515 95.4308 8.35336 95.0338 8.23982C93.964 7.93332 92.8477 8.20502 92.0058 9.34205C91.3365 10.2456 90.9331 11.2691 90.7744 12.7393C90.6583 13.8141 90.6962 14.9042 90.9025 15.826C90.6532 16.8662 90.1904 17.2924 89.6837 17.2924C88.948 17.2924 88.4147 16.1335 88.4766 14.1291C88.5175 12.8107 88.7908 11.8856 89.0895 10.5472C89.2169 9.97647 89.1134 9.67789 88.8538 9.39158C88.6157 9.12889 88.1086 8.99488 87.3791 9.15986C86.8596 9.27736 86.1168 9.404 85.4374 9.50116C85.4374 9.50116 85.4784 9.34327 85.512 9.06489C85.6888 7.60498 84.0451 7.72343 83.5207 8.18973C83.2076 8.46812 82.9945 8.79646 82.9137 9.38681C82.7854 10.3235 83.5769 10.7655 83.5769 10.7655C83.3172 11.9132 82.6805 13.4121 82.0233 14.4959C81.6712 15.0766 81.4017 15.5069 81.0542 15.9643C81.0529 15.7943 81.052 15.6242 81.0514 15.4542C81.0433 13.0416 81.0767 11.1428 81.0912 10.4585C81.1057 9.78815 81.1335 9.28705 81.1318 9.17037C81.128 8.90836 80.9695 8.80929 80.6398 8.68415C80.3482 8.57334 80.0035 8.49664 79.6459 8.4699C79.1948 8.43605 78.9227 8.66695 78.9299 8.94016C78.9313 8.99174 78.9313 9.30848 78.9313 9.30848C78.5602 8.74556 77.9631 8.35377 77.5661 8.24023C76.4963 7.93373 75.38 8.20543 74.538 9.34245C73.8689 10.246 73.4308 11.5139 73.3066 12.7284C73.1909 13.8604 73.2123 14.8223 73.37 15.6327C73.1999 16.4441 72.7108 17.2926 72.1578 17.2926C71.4508 17.2926 71.0486 16.6892 71.0486 13.931C71.0486 12.322 71.0986 11.6224 71.1231 10.4586C71.1375 9.78829 71.1651 9.2734 71.1634 9.15673C71.1582 8.7985 70.5164 8.61796 70.2178 8.55109C69.9053 8.48122 69.6355 8.45571 69.4284 8.47044C69.1549 8.4901 68.9629 8.72618 68.9629 8.90236V9.30848C68.5917 8.74556 67.9946 8.35377 67.5976 8.24023C66.5278 7.93373 65.4178 8.20979 64.5696 9.34245C64.0164 10.081 63.5686 10.8998 63.3382 12.7123C63.2716 13.2361 63.2422 13.7267 63.246 14.1851C63.0254 15.4869 62.0514 16.9874 61.2543 16.9874C60.788 16.9874 60.3439 16.1145 60.3439 14.2541C60.3439 11.7759 60.503 8.2476 60.5297 7.90753C60.5297 7.90753 61.5365 7.89101 61.7315 7.88883C62.2339 7.88351 62.6888 7.89497 63.3575 7.86195C63.6931 7.84543 64.0163 6.6833 63.67 6.53946C63.5132 6.47437 62.4039 6.41733 61.9643 6.40832C61.5945 6.40027 60.565 6.32671 60.565 6.32671C60.565 6.32671 60.6574 3.9847 60.679 3.73729C60.6972 3.53095 60.4208 3.42492 60.2623 3.36037C59.8767 3.20316 59.532 3.1277 59.1233 3.04637C58.5585 2.93392 58.3022 3.04391 58.2523 3.50407C58.1769 4.20209 58.1379 6.24715 58.1379 6.24715C57.7233 6.24715 56.3079 6.16896 55.8933 6.16896C55.508 6.16896 55.0925 7.76765 55.6249 7.7873C56.2376 7.81023 57.3052 7.83001 58.0131 7.85062C58.0131 7.85062 57.9815 11.4372 57.9815 12.5445C57.9815 12.6622 57.9819 12.7756 57.9828 12.8858C57.5933 14.8454 56.221 15.904 56.221 15.904C56.5157 14.6075 55.9138 13.634 54.8297 12.8099C54.4302 12.5061 53.6418 11.9313 52.7595 11.3013C52.7595 11.3013 53.2705 10.8152 53.7236 9.83714C54.0447 9.14444 54.0586 8.35172 53.2703 8.17691C51.9682 7.88801 50.8944 8.81092 50.5741 9.79634C50.326 10.5599 50.4583 11.1262 50.9444 11.7148C50.9799 11.7578 51.0184 11.8016 51.0581 11.8458C50.7641 12.3926 50.3603 13.1288 50.0183 13.6998C49.0689 15.285 48.3519 16.5388 47.8098 16.5388C47.3765 16.5388 47.3825 15.2659 47.3825 14.074C47.3825 13.0465 47.4611 11.5017 47.5239 9.90237C47.5446 9.37343 47.2705 9.07212 46.8111 8.79919C46.532 8.63338 45.9363 8.30737 45.5914 8.30737C45.0751 8.30737 43.5852 8.37519 42.1775 12.3052C42.0001 12.8006 41.6516 13.7032 41.6516 13.7032L41.6815 8.97714C41.6815 8.86633 41.6203 8.75907 41.4803 8.68579C41.2431 8.5616 40.6095 8.30737 40.0462 8.30737C39.7778 8.30737 39.6438 8.42787 39.6438 8.66805L39.5946 16.0621C39.5946 16.624 39.6097 17.2794 39.6674 17.566C39.7247 17.8531 39.8176 18.0865 39.9326 18.2254C40.0475 18.364 40.1804 18.4698 40.3995 18.5135C40.6034 18.554 41.72 18.6924 41.7781 18.2805C41.8477 17.7869 41.8502 17.2531 42.4366 15.262C43.3494 12.1622 44.5395 10.6498 45.0991 10.1127C45.1968 10.0188 45.3085 10.0132 45.3032 10.1668C45.2794 10.8463 45.1954 12.5446 45.1387 13.9873C44.9871 17.8482 45.7149 18.5638 46.7548 18.5638C47.5504 18.5638 48.672 17.8007 49.8742 15.8694C50.6236 14.6658 51.3514 13.4857 51.8744 12.6351C52.2387 12.9607 52.6475 13.311 53.0563 13.6853C54.0059 14.5551 54.3176 15.3817 54.1108 16.1658C53.9525 16.7653 53.3567 17.3831 52.2963 16.7827C51.9872 16.6076 51.8551 16.4722 51.5445 16.2746C51.3775 16.1686 51.1227 16.1368 50.9699 16.248C50.5727 16.5369 50.3456 16.9045 50.216 17.3595C50.0898 17.8022 50.5492 18.0362 51.0254 18.2409C51.4355 18.4171 52.3168 18.5768 52.8788 18.5949C55.0686 18.6656 56.8229 17.5744 58.044 14.7597C58.2627 17.1906 59.193 18.5661 60.8095 18.5661C61.8902 18.5661 62.9737 17.218 63.4475 15.8917C63.5835 16.4324 63.7848 16.9023 64.0449 17.3C65.2904 19.2046 67.7066 18.7947 68.9203 17.1775C69.2955 16.6777 69.3527 16.498 69.3527 16.498C69.5297 18.0252 70.804 18.5589 71.5336 18.5589C72.3507 18.5589 73.1944 18.1861 73.7857 16.9013C73.8534 17.0384 73.9294 17.1715 74.0132 17.3001C75.2587 19.2048 77.6749 18.7948 78.8886 17.1776C78.9458 17.1016 78.9955 17.0328 79.0388 16.971L79.0744 17.9743L77.9572 18.9634C76.0841 20.6202 74.6611 21.8769 74.5565 23.3404C74.4235 25.2064 75.9905 25.8999 77.1778 25.9908C78.4365 26.0873 79.5163 25.4156 80.1791 24.4755C80.7624 23.6482 81.144 21.8675 81.1161 20.1086C81.105 19.4043 81.0866 18.5088 81.072 17.5489C81.7295 16.812 82.4704 15.8805 83.1523 14.7904C83.8958 13.6022 84.6924 12.0068 85.1002 10.7651C85.1002 10.7651 85.7923 10.7708 86.5309 10.7242C86.7672 10.7093 86.8349 10.7557 86.7913 10.923C86.7386 11.1248 85.8581 14.4026 86.6617 16.586C87.2117 18.0807 88.4516 18.5616 89.1867 18.5616C90.0472 18.5616 90.8702 17.9344 91.3114 17.0031C91.3645 17.1069 91.4202 17.2073 91.4808 17.3001C92.7263 19.2048 95.134 18.7925 96.3562 17.1776C96.632 16.8132 96.7886 16.4981 96.7886 16.4981C97.0509 18.0787 98.3244 18.5669 99.0539 18.5669C99.8137 18.5669 100.535 18.2663 101.12 16.9302C101.144 17.5186 101.183 17.9995 101.243 18.1511C101.281 18.2439 101.496 18.3603 101.654 18.4166C102.349 18.6652 103.058 18.5477 103.32 18.4965C103.502 18.4611 103.643 18.3204 103.663 17.9571C103.713 17.0032 103.682 15.4005 103.982 14.2093C104.485 12.2104 104.954 11.4349 105.176 11.0511C105.301 10.8361 105.442 10.8006 105.447 11.0282C105.457 11.4888 105.481 12.8413 105.676 14.6585C105.819 15.9949 106.01 16.7848 106.157 17.0349C106.576 17.7497 107.094 17.7835 107.515 17.7835C107.783 17.7835 108.344 17.7121 108.294 17.2572C108.27 17.0354 108.313 15.6649 108.809 13.6956C109.132 12.4095 109.672 11.2476 109.867 10.8227C109.939 10.666 109.972 10.7895 109.971 10.8135C109.93 11.6992 109.838 14.5961 110.212 16.1804C110.718 18.3269 112.184 18.5669 112.695 18.5669C113.786 18.5669 114.678 17.7663 114.978 15.6596C115.051 15.152 114.944 14.7605 114.623 14.7605ZM68.9406 13.4581C68.8781 14.573 68.6527 15.5051 68.291 16.1821C67.6366 17.4074 66.3419 17.7959 65.7711 16.0254C65.3595 14.7488 65.4996 13.0079 65.6709 12.0677C65.9249 10.672 66.5612 9.68266 67.5545 9.77641C68.5748 9.87276 69.0708 11.1382 68.9406 13.4581ZM78.9089 13.4742C78.8506 14.527 78.5678 15.5846 78.2593 16.1822C77.6225 17.416 76.2911 17.8017 75.7394 16.0256C75.3622 14.812 75.4525 13.2414 75.6392 12.2519C75.8814 10.9678 76.4684 9.77655 77.5228 9.77655C78.5479 9.77641 79.0534 10.8619 78.9089 13.4742ZM79.169 20.657C79.1552 22.5777 78.8421 24.2616 78.1705 24.7507C77.2179 25.4442 75.9376 24.924 76.2028 23.5225C76.4373 22.2823 77.5467 21.0158 79.1719 19.4683C79.1719 19.4683 79.1751 19.8212 79.169 20.657ZM96.3767 13.4854C96.3213 14.6413 96.0562 15.5448 95.7272 16.1821C95.0902 17.4159 93.7683 17.7989 93.2073 16.0254C92.9015 15.0587 92.8872 13.444 93.1071 12.095C93.3309 10.7208 93.9558 9.68266 94.9907 9.77641C96.0114 9.8688 96.4892 11.1382 96.3767 13.4854Z" fill="#DB812D"/>
</svg>
