<svg width="38" height="40" fill="none" xmlns="http://www.w3.org/2000/svg"><path d="M36.743 23.43h-.587v-5.393c0-.853-.416-1.609-1.053-2.068v-.734c0-1.065-.85-1.932-1.894-1.932h-.438l1.677-2.509a1.871 1.871 0 00-.476-2.565L22.592.321a1.77 1.77 0 00-1.357-.288 1.796 1.796 0 00-1.159.774l-9.822 14.697H7.521l.66-6.807a.201.201 0 01.124-.17 4.267 4.267 0 002.073-1.717.195.195 0 01.186-.089l4.287.432c.307.03.58-.198.611-.511a.567.567 0 00-.501-.623l-4.287-.432a1.3 1.3 0 00-1.24.611 3.137 3.137 0 01-1.523 1.263c-.47.18-.793.611-.843 1.124l-.67 6.92h-.713L6.728 4.737a.696.696 0 01.757-.633l8.663.872a.561.561 0 00.611-.51.567.567 0 00-.5-.624L7.594 2.97c-.993-.1-1.882.643-1.98 1.656l-.84 8.677H3.343c-1.044 0-1.894.867-1.894 1.932v.5A2.54 2.54 0 000 18.038v19.43C0 38.864 1.114 40 2.484 40h31.188c1.37 0 2.484-1.136 2.484-2.533v-5.392h.587A1.27 1.27 0 0038 30.794V24.71a1.27 1.27 0 00-1.257-1.28zm-3.534-8.987c.428 0 .777.355.777.792v.29a2.459 2.459 0 00-.314-.02H31.3l.71-1.062h1.2zM21 1.45a.688.688 0 01.962-.186l11.38 7.908c.316.22.398.66.183.981l-3.577 5.352h-.859l1.754-2.624c.284-.426.308-.967.06-1.413A3.24 3.24 0 0130.53 9.5a1.343 1.343 0 00-.565-1.28l-5.9-4.1a1.286 1.286 0 00-1.374-.068 3.073 3.073 0 01-1.931.364c-.49-.07-.988.155-1.268.575l-7.025 10.512h-.859L21 1.45zm.246 9.679c-2.434 0-4.432 1.935-4.595 4.376h-2.833l6.597-9.87a.199.199 0 01.189-.088 4.18 4.18 0 002.626-.495.194.194 0 01.205.013l5.9 4.1a.203.203 0 01.086.189 4.404 4.404 0 00.51 2.674.206.206 0 01-.012.211l-2.182 3.266h-1.895c-.163-2.44-2.161-4.376-4.596-4.376zm3.475 4.376h-6.949c.16-1.811 1.657-3.236 3.474-3.236 1.818 0 3.315 1.425 3.475 3.236zm-22.154-.27c0-.436.348-.79.776-.79h1.321l-.102 1.06H2.567v-.27zm-1.45 2.803c0-.768.614-1.393 1.367-1.393h31.188c.754 0 1.367.625 1.367 1.393v1.582H1.117v-1.582zm33.922 19.43c0 .768-.613 1.393-1.367 1.393H2.484c-.753 0-1.366-.625-1.366-1.393v-1.582h3.014a.564.564 0 00.559-.57c0-.314-.25-.57-.559-.57H1.118V20.76h33.92v2.67h-5.314c-1.675 0-3.125.995-3.814 2.436l-.007.015-.016.037a4.353 4.353 0 00-.212.551v.002c-.124.405-.19.836-.19 1.282 0 2.384 1.901 4.323 4.239 4.323h5.314v2.67H7.711a.564.564 0 00-.559.57c0 .315.25.57.56.57h27.326v1.582zm1.843-6.673a.14.14 0 01-.139.141h-7.019a3.116 3.116 0 01-2.813-1.804 3.225 3.225 0 01-.118-2.472 3.25 3.25 0 01.187-.423 3.116 3.116 0 012.744-1.667h7.02a.14.14 0 01.138.142v6.083z" fill="#382D2D"/><path d="M29.855 25.44c-1.25 0-2.268 1.037-2.268 2.312s1.018 2.313 2.268 2.313c1.25 0 2.268-1.038 2.268-2.313 0-1.275-1.017-2.312-2.268-2.312zm0 3.485c-.634 0-1.15-.526-1.15-1.173 0-.646.516-1.172 1.15-1.172.634 0 1.15.526 1.15 1.172 0 .647-.516 1.173-1.15 1.173z" fill="#382D2D"/></svg>