<svg width="42" height="42" fill="none" xmlns="http://www.w3.org/2000/svg"><path d="M37.649 5.827c-.846-.047-1.637.544-1.637 1.436v5.508h-13.55l-.601-1.256c1.39-1.843.792-4.566-1.228-5.672l.043-4.05c.024-2.339-3.578-2.356-3.603-.038L17.03 5.8c-2.04 1.062-2.696 3.779-1.347 5.649l-.666 1.32H1.436A1.44 1.44 0 000 14.207v26.33c0 .792.644 1.436 1.436 1.436h36.468A4.1 4.1 0 0042 37.913l.001-.018V10.178a4.355 4.355 0 00-4.351-4.35zm-.406 1.436c0-.204.256-.238.406-.205 1.72 0 3.12 1.4 3.12 3.12v24.793a4.083 4.083 0 00-2.866-1.173c-.16.025-.66.07-.66-.205V7.263zm-9.867 18.633l-.642 1.822-7.067-14.772a3.817 3.817 0 001.254-.543l6.455 13.493zm-10.772-13.54c.371.26.79.455 1.242.57l-7.377 14.62-.604-1.834 6.739-13.355zm4.29 6.006l-4.389-.046 2.242-4.442 2.147 4.488zm-2.59-16.594c.007-.752 1.149-.72 1.141.012l-.038 3.642a3.897 3.897 0 00-1.142-.014l.039-3.64zm-1.332 5.58a2.637 2.637 0 011.851-.744 2.61 2.61 0 012.579 2.633 2.61 2.61 0 01-2.606 2.58h-.028a2.61 2.61 0 01-2.578-2.635 2.59 2.59 0 01.782-1.834zm20.932 33.394H1.436a.205.205 0 01-.206-.205v-26.33c0-.114.092-.206.206-.206h12.96l-2.155 4.27-2.078-.022c-.79-.014-.807 1.222-.013 1.23l1.474.016-2.896 5.738a1.019 1.019 0 00-.059.783l.786 2.387c.28.85 1.486.94 1.889.14l4.543-9.003 5.598.059 4.352 9.097c.384.803 1.595.741 1.892-.102l.836-2.368a1.018 1.018 0 00-.042-.784l-2.774-5.798 1.474.015c.79.014.807-1.222.013-1.23l-2.079-.022L23.05 14h12.962v19.592c0 1.08.974 1.47 1.891 1.436a2.87 2.87 0 012.866 2.857 2.868 2.868 0 01-2.865 2.856z" fill="#382D2D"/><path d="M32.224 30.645H5.019c-.566 0-1.026.46-1.026 1.026v5.578c0 .566.46 1.025 1.026 1.025h27.205c.565 0 1.025-.46 1.025-1.025v-5.578c0-.566-.46-1.026-1.025-1.026zm-.205 6.399H5.224v-5.168h1.585v1.101c0 .77 1.23.805 1.23 0v-1.101h1.57v1.922c0 .77 1.23.805 1.23 0v-1.922h1.568v1.101c0 .77 1.23.805 1.23 0v-1.101h1.57v1.922c0 .77 1.23.805 1.23 0v-1.922h1.569v1.101c0 .77 1.23.805 1.23 0v-1.101h1.57v1.922c0 .77 1.23.805 1.23 0v-1.922h1.568v1.101c0 .77 1.23.805 1.23 0v-1.101h1.57v1.922c0 .77 1.23.805 1.23 0v-1.922h1.569v1.101c0 .77 1.23.805 1.23 0v-1.101h1.586v5.168z" fill="#382D2D"/></svg>