<svg width="46" height="46" fill="none" xmlns="http://www.w3.org/2000/svg"><path d="M37.808 29.346v8.552H43.3v-6.183l-2.19-2.369h-3.3zm4.141 7.202h-2.79v-5.851h1.36l1.43 1.547v4.304z" fill="#382D2D"/><path d="M42.29 26.646h-7.182v9.902h-14.18v1.35h15.529v-9.902h5.241l1.022 1.105.992-.917-1.424-1.538z" fill="#382D2D"/><path d="M44.63 29.175l-.992.917 1.012 1.094v10.763h-1.508a3.382 3.382 0 00-3.308-2.7 3.38 3.38 0 00-3.308 2.7H34.14a3.382 3.382 0 00-3.308-2.7 3.381 3.381 0 00-3.308 2.7H17.486a3.381 3.381 0 00-3.308-2.7 3.381 3.381 0 00-3.308 2.7H9.384a3.381 3.381 0 00-3.308-2.7 3.381 3.381 0 00-3.307 2.7H1.35v-4.05h18.23v-1.351H0v6.751h2.769A3.381 3.381 0 006.076 46a3.382 3.382 0 003.308-2.7h1.486a3.381 3.381 0 003.308 2.7 3.381 3.381 0 003.308-2.7h10.038A3.381 3.381 0 0030.83 46a3.381 3.381 0 003.308-2.7h2.387a3.381 3.381 0 003.307 2.7 3.381 3.381 0 003.308-2.7H46V30.656l-1.37-1.482zM6.075 44.65a2.027 2.027 0 01-2.025-2.026c0-1.117.908-2.025 2.025-2.025s2.026.909 2.026 2.025a2.027 2.027 0 01-2.026 2.026zm8.102 0a2.027 2.027 0 01-2.025-2.026c0-1.117.908-2.025 2.025-2.025s2.025.909 2.025 2.025a2.027 2.027 0 01-2.025 2.026zm16.654 0a2.027 2.027 0 01-2.026-2.026c0-1.117.909-2.025 2.026-2.025 1.117 0 2.025.909 2.025 2.025a2.027 2.027 0 01-2.025 2.026zm9.002 0a2.027 2.027 0 01-2.026-2.026c0-1.117.909-2.025 2.026-2.025 1.116 0 2.025.909 2.025 2.025a2.027 2.027 0 01-2.025 2.026zM17.43 29.813l12.73-12.73.955.955-12.731 12.73-.955-.955zm-1.817-5.821l5.008-5.007.955.955-5.008 5.007-.955-.954z" fill="#382D2D"/><path d="M31.915 9.6l2.864 2.865-3.664 3.664.955.955 4.619-4.62-.955-.954 8.052-8.052c.383-.383.594-.891.594-1.433 0-.54-.21-1.05-.594-1.432A2.011 2.011 0 0042.354 0c-.54 0-1.05.21-1.432.593l-3.11 3.11.954.956 3.111-3.111a.67.67 0 01.477-.198.67.67 0 01.675.675c0 .18-.07.35-.197.478l-8.053 8.052-.955-.954 3.987-3.988-.954-.954-3.987 3.987-.955-.955-10.34 10.34.955.954L31.914 9.6zM4.051 23.045v6.752h8.552v-2.701l-3.038-4.051H4.05zm7.202 5.401H5.4v-4.05h3.49l2.364 3.15v.9z" fill="#382D2D"/><path d="M3.826 33.847H1.35v-1.35h13.953v1.35H5.176v1.35h11.478v-4.05h-1.35v-4.951l-2.026-2.7-1.08.81 1.755 2.34v4.5H2.701v-9.451h7.539l1.147 1.53 1.08-.81-1.552-2.07H1.35v10.802H0v4.05h3.826v-1.35zM45.64 15.888h-1.35c0 .869-.707 1.576-1.576 1.576a1.577 1.577 0 01-1.575-1.576c0-.868.707-1.575 1.575-1.575h.675V9.857h-1.35v3.184a2.931 2.931 0 00-2.25 2.847 2.93 2.93 0 002.925 2.926 2.93 2.93 0 002.926-2.926zm-3.6-8.731h1.35v1.35h-1.35v-1.35zM25.52 40.599h-3.6v-1.35h3.6v1.35zm-4.95 0h-1.35v-1.35h1.35v1.35zm3.433-19.267l-.955-.955.955-.955.955.955-.955.955zm1.91-1.91l-.955-.954.955-.956.954.956-.954.954zm1.91-1.91l-.956-.954.955-.955.955.955-.955.954z" fill="#382D2D"/></svg>