<svg width="42" height="42" fill="none" xmlns="http://www.w3.org/2000/svg"><path d="M41.923 9.954a2.1 2.1 0 00-.98-1.274 2.1 2.1 0 00-2.87.77l-.35.61a.7.7 0 00-.951.251l-1.778 3.031-.609-.35a.7.7 0 10-.7 1.211l.61.35-5.95 10.311-1.47 3.927-.7 1.309a2.1 2.1 0 00.113 2.268L24.713 34.3l-.441-1.106a1.4 1.4 0 00-2.499-.196l-.252.427-.238-2.8a1.4 1.4 0 00-2.722-.329l-1.722 5.166a.7.7 0 00.441.882.605.605 0 00.217.056.7.7 0 00.665-.476l1.715-5.166.245 2.842a1.4 1.4 0 002.596.602l.26-.427.433 1.1a1.4 1.4 0 002.394.356l1.63-2.065c.18.047.367.071.553.07a2.1 2.1 0 001.827-1.036l.7-1.169 2.666-3.24 6.012-10.438.61.35a.7.7 0 01.258.96l-2.8 4.85a.7.7 0 00.225.987.7.7 0 00.959-.259l2.8-4.85a2.099 2.099 0 00-.77-2.87l-.61-.35 1.75-3.032a.7.7 0 00-.252-.952l.35-.609a2.1 2.1 0 00.21-1.624zm-2.639.196a.7.7 0 01.96-.259.7.7 0 01.328.427.73.73 0 01-.07.532l-.35.61-1.218-.7.35-.61zm-9.54 19.544l-1.385-.805.994-2.66 2.204 1.274-1.812 2.191zm-2.099 2.023a.7.7 0 01-.21-.917l.35-.609 1.218.7-.35.602a.7.7 0 01-1.008.224zm4.71-5.362l-2.421-1.4 5.599-9.702 2.422 1.4-5.6 9.702zm6.3-10.913l-2.422-1.4 1.4-2.422 2.421 1.4-1.4 2.422zM11.044 31.367l-2.477 2.471-1.484-1.484a.7.7 0 10-.987.994l1.484 1.484c.262.26.617.407.987.406a1.4 1.4 0 00.993-.406l2.47-2.478a.7.7 0 00-.986-.987z" fill="#382D2D"/><path d="M2.8 33.25a5.95 5.95 0 1011.898 0 .7.7 0 10-1.4 0 4.55 4.55 0 11-4.55-4.55 4.51 4.51 0 012.73.91.7.7 0 10.84-1.12A5.95 5.95 0 002.8 33.25zM25.196 5.6a.7.7 0 100-1.4H6.999a.7.7 0 00-.7.7v2.8a.7.7 0 00.7.7h18.197a.7.7 0 100-1.4H7.699V5.6h17.497zM9.098 9.8a.7.7 0 000 1.4h13.998a.7.7 0 100-1.4H9.098zm18.197 4.9H11.898a.7.7 0 000 1.4h15.397a.7.7 0 100-1.4zm-6.998 4.9a.7.7 0 00-.7-.7H5.599a.7.7 0 000 1.4h13.998a.7.7 0 00.7-.7zm6.998-.7h-4.899a.7.7 0 000 1.4h4.9a.7.7 0 100-1.4zm-14.697 4.9a.7.7 0 100-1.4H5.599a.7.7 0 000 1.4h6.999zm2.799 0h4.9a.7.7 0 100-1.4h-4.9a.7.7 0 000 1.4z" fill="#382D2D"/><path d="M31.495 32.2a.7.7 0 00-.7.7v7a.7.7 0 01-.7.7H2.1a.7.7 0 01-.7-.7V2.1a.7.7 0 01.7-.7h27.995a.7.7 0 01.7.7v13.146a.7.7 0 101.4 0V2.1a2.1 2.1 0 00-2.1-2.1H2.1A2.1 2.1 0 000 2.1v37.8C0 41.06.94 42 2.1 42h27.995a2.1 2.1 0 002.1-2.1v-7a.7.7 0 00-.7-.7z" fill="#382D2D"/></svg>