<svg width="56" height="24" fill="none" xmlns="http://www.w3.org/2000/svg"><path d="M53.981 9.434l-6.25-1.167a.826.826 0 01-.63-.554l-2-6.01A2.466 2.466 0 0042.77 0h-7.262c-1.358 0-2.463 1.125-2.463 2.509v5.77h-1.818V1.95C31.226.875 30.367 0 29.311 0H9.55a.829.829 0 00-.821.836c0 .372.238.687.568.795v9.49c0 .461.367.835.82.835a.828.828 0 00.821-.836V1.672h3.37v9.448a.83.83 0 00.822.837c.453 0 .82-.375.82-.837V1.672h3.37v9.448a.83.83 0 00.822.837c.453 0 .82-.375.82-.837V1.672h3.37v9.448a.83.83 0 00.822.837c.453 0 .82-.375.82-.837V1.672h3.337c.15 0 .273.125.273.279v14.326a.277.277 0 01-.273.28h-7.67a4.005 4.005 0 00-4.952 0h-.965c.63-1.314 1.96-2.198 3.442-2.198.593 0 1.162.134 1.69.4a.814.814 0 001.099-.38.843.843 0 00-.373-1.12 5.332 5.332 0 00-2.416-.572c-1.923 0-3.67 1.043-4.649 2.641-.978-1.599-2.724-2.641-4.648-2.641-2.377 0-4.488 1.58-5.208 3.87H1.915a.277.277 0 01-.273-.28V1.951c0-.153.123-.279.273-.279h2.37v9.449c0 .461.367.836.82.836a.829.829 0 00.821-.836V1.563a.838.838 0 00.416-.727A.829.829 0 005.52 0H1.915C.86 0 0 .875 0 1.951v14.327c0 1.075.86 1.95 1.915 1.95h4.203a4.194 4.194 0 00-.323 1.621C5.795 22.14 7.622 24 9.869 24s4.075-1.862 4.075-4.15c0-.575-.116-1.123-.324-1.621h1.795a4.193 4.193 0 00-.324 1.62c0 2.29 1.828 4.151 4.075 4.151 2.246 0 4.074-1.862 4.074-4.15 0-.575-.115-1.123-.323-1.621h6.394c1.056 0 1.915-.875 1.915-1.951v-.522h1.818v.522c0 1.075.859 1.95 1.915 1.95h4.47v1.334h-4.657a.829.829 0 00-.821.836c0 .462.368.836.82.836h4.712c.165.58.69 1.007 1.314 1.007h1.722c.647 0 1.19-.461 1.33-1.078C44.392 22.81 45.92 24 47.715 24c1.796 0 3.323-1.19 3.864-2.837a1.375 1.375 0 001.332 1.078h1.722c.754 0 1.368-.625 1.368-1.394v-8.945c0-1.212-.849-2.25-2.019-2.468zM9.87 14.36c1.481 0 2.811.883 3.441 2.197h-.965a4.006 4.006 0 00-4.952 0h-.966c.63-1.321 1.962-2.197 3.442-2.197zm0 7.969c-1.341 0-2.433-1.112-2.433-2.479 0-1.366 1.092-2.478 2.433-2.478 1.342 0 2.433 1.112 2.433 2.478 0 1.367-1.091 2.479-2.433 2.479zm9.297 0c-1.342 0-2.433-1.112-2.433-2.479 0-1.366 1.091-2.478 2.433-2.478 1.341 0 2.433 1.112 2.433 2.478 0 1.367-1.092 2.479-2.433 2.479zm12.06-8.245V9.951h1.818v4.132h-1.818zm16.488 8.245c-1.341 0-2.433-1.112-2.433-2.479 0-1.366 1.092-2.478 2.433-2.478 1.342 0 2.433 1.112 2.433 2.478 0 1.367-1.091 2.479-2.433 2.479zm0-6.629c-1.755 0-3.255 1.137-3.827 2.726v-.09c0-2.157 1.687-3.94 3.761-3.975a3.76 3.76 0 012.75 1.118 3.907 3.907 0 011.144 2.78v.167c-.572-1.59-2.072-2.726-3.828-2.726zm6.644 4.87h-1.174v-2.311a5.584 5.584 0 00-1.635-3.973 5.373 5.373 0 00-3.928-1.598c-2.964.05-5.376 2.585-5.376 5.649v2.233H41.07v-2.62c0-.768-.613-1.393-1.368-1.393H34.96a.277.277 0 01-.273-.279V2.51a.83.83 0 01.82-.837h7.263c.352 0 .664.229.777.568l.382 1.147h-5.935c-.755 0-1.369.625-1.369 1.393v3.777c0 .768.614 1.394 1.368 1.394h.295c.453 0 .82-.375.82-.837a.829.829 0 00-.82-.836h-.021V5.06h6.218l1.063 3.192.01.027h-3.294a.829.829 0 00-.82.836c0 .462.367.837.82.837h5.376l6.046 1.128c.39.073.673.419.673.823v8.667z" fill="#382D2D"/><path d="M9.87 20.844a.985.985 0 00.976-.995.985.985 0 00-.977-.994.985.985 0 00-.976.994c0 .55.437.995.976.995zm9.296 0a.985.985 0 00.976-.995.985.985 0 00-.976-.994.985.985 0 00-.976.994c0 .55.437.995.976.995zm28.548 0c.54 0 .977-.445.977-.995a.985.985 0 00-.977-.994.985.985 0 00-.976.994c0 .55.437.995.976.995z" fill="#382D2D"/></svg>