<svg width="38" height="44" fill="none" xmlns="http://www.w3.org/2000/svg"><path d="M25.6 11.842H5.104a.64.64 0 00-.63.648c0 .357.282.647.63.647H25.6c.348 0 .63-.29.63-.647a.639.639 0 00-.63-.648zM5.103 8.647h10.249a.64.64 0 00.63-.647.639.639 0 00-.63-.647H5.102a.64.64 0 00-.63.647.64.64 0 00.63.647zM25.6 15.82H5.104a.64.64 0 00-.63.648c0 .358.282.647.63.647H25.6c.348 0 .63-.29.63-.647a.639.639 0 00-.63-.647z" fill="#382D2D"/><path d="M9.772 39.503h-6.56c-1.077 0-1.953-.9-1.953-2.008V3.303c0-1.107.876-2.008 1.953-2.008H22.11c.062 0 .122.006.181.014v4.037c0 1.821 1.441 3.302 3.212 3.302h3.927c.008.061.014.123.014.186v11.022a.64.64 0 00.63.648.64.64 0 00.63-.648V8.833c0-.71-.27-1.378-.758-1.88L23.939.78A2.534 2.534 0 0022.11 0H3.212C1.441 0 0 1.481 0 3.302v34.194c0 1.82 1.441 3.301 3.212 3.301h6.56c.348 0 .63-.29.63-.647a.639.639 0 00-.63-.647zm18.781-32.15h-3.05c-1.076 0-1.953-.9-1.953-2.008V2.21l5.003 5.143z" fill="#382D2D"/><path d="M37.807 31.688L32.47 22.43a1.36 1.36 0 00-1.891-.497l-1.298.79c-1.008.613-1.433 1.855-1.087 2.955-.438.163-.917.16-1.358-.015-1.025-.332-1.804-.998-3.09-.664-2.185.572-2.119.543-2.316.613-1.28-.749-2.048-.972-3.406-.432l-1.21.481a1.89 1.89 0 01-1.696-.145l-.33-.2c.16-.993-.268-2.04-1.175-2.593l-1.297-.79a1.362 1.362 0 00-1.892.497l-5.336 9.258a1.441 1.441 0 00.485 1.945l1.297.79a2.4 2.4 0 001.25.353 2.43 2.43 0 001.346-.409l.27.164-.57.818c-.681.974-.465 2.33.483 3.029.438.323.99.47 1.559.379.09.543.38 1.051.848 1.397.44.325.989.473 1.56.38.09.543.38 1.05.848 1.397.63.464 1.412.518 2.064.232.143.38.39.725.737.98a2.074 2.074 0 002.85-.37l1.517.923c1.004.611 2.299.272 2.894-.761.152-.264.246-.552.28-.847l.004.002c1.002.61 2.3.268 2.893-.762.172-.298.266-.621.29-.946a2.092 2.092 0 002.332-.998 2.21 2.21 0 00.284-.879 2.087 2.087 0 002.587-.915 2.208 2.208 0 00.229-1.644 2.183 2.183 0 00-.43-.86l.837-.502c.708.298 1.515.25 2.192-.161l1.297-.79c.657-.4.874-1.27.485-1.945zM7.513 33.309l-1.297-.79a.127.127 0 01-.043-.172l5.335-9.257a.12.12 0 01.167-.044l1.297.79c.577.352.758 1.112.422 1.694L9.16 32.876a1.186 1.186 0 01-1.647.433zm2.871 4.017a.891.891 0 01-.195-1.222l.84-1.202a.84.84 0 011.189-.2c.381.281.469.83.195 1.221l-.84 1.202a.838.838 0 01-1.189.201zm2.408 1.777a.893.893 0 01-.195-1.223l.839-1.201.926-1.327a.844.844 0 01.694-.365.83.83 0 01.495.165.888.888 0 01.195 1.222l-1.765 2.528a.837.837 0 01-1.19.2zm2.407 1.776a.893.893 0 01-.195-1.222l1.765-2.528a.838.838 0 011.19-.201c.381.282.468.83.195 1.222l-.785 1.123-.981 1.405a.838.838 0 01-1.189.201zM18 42.091a.893.893 0 01-.196-1.221l.588-.841a.838.838 0 011.189-.201c.382.281.47.83.195 1.222l-.587.84a.838.838 0 01-1.189.201zm14.114-5.16a.84.84 0 01-1.168.307l-5.574-3.394a.62.62 0 00-.863.227.657.657 0 00.221.886l4.214 2.566a.89.89 0 01.299 1.201.84.84 0 01-1.168.307l-4.216-2.567a.62.62 0 00-.863.227.657.657 0 00.221.887l3.105 1.89a.89.89 0 01.299 1.2.84.84 0 01-1.168.308l-1.666-1.014-.001-.001-1.216-.74a.62.62 0 00-.863.226.657.657 0 00.22.887l1.217.74v.001a.89.89 0 01.3 1.2.84.84 0 01-1.169.308l-1.418-.864c.608-.965.377-2.265-.541-2.942a2.069 2.069 0 00-.877-.376c.325-.896.044-1.94-.746-2.524a2.059 2.059 0 00-1.558-.38 2.163 2.163 0 00-.85-1.397 2.073 2.073 0 00-2.732.237 2.139 2.139 0 00-.601-.687 2.067 2.067 0 00-2.334-.087l-.289-.175 3.96-6.872.189.115a3.112 3.112 0 002.79.238l1.21-.481c.694-.275 1.075-.293 1.76.04a2.944 2.944 0 00-.714 1.929v2.87c0 .762.603 1.383 1.344 1.383h.002a2.73 2.73 0 001.968-.837c.306-.315.532-.69.668-1.1l8.309 5.058a.89.89 0 01.299 1.2zm4.567-4.412l-1.298.79c-.57.347-1.31.153-1.647-.433l-1.985-3.443a.62.62 0 00-.862-.227.658.658 0 00-.221.886l1.984 3.444c.038.064.078.126.12.186l-.552.331a3.2 3.2 0 00-.321.224l-8.554-5.207c-.42-.255-.95.056-.95.557-.007.038.064.704-.448 1.23-.287.295-.67.458-1.077.458h-.001a.087.087 0 01-.086-.088v-2.87c0-.75.502-1.383 1.18-1.56l2.092-.543c.759-.197 1.188.22 2.324.614a3.104 3.104 0 002.408-.04l.38.66a.62.62 0 00.863.227.657.657 0 00.22-.887l-.748-1.299a1.255 1.255 0 01.422-1.693l1.297-.79a.12.12 0 01.167.044l5.335 9.257a.127.127 0 01-.042.172z" fill="#382D2D"/></svg>