<svg width="56" height="48" viewBox="0 0 56 48" fill="none" xmlns="http://www.w3.org/2000/svg">
<path d="M55.0968 0H21.6774C21.4379 0 21.2081 0.0972526 21.0387 0.270363C20.8694 0.443473 20.7742 0.678261 20.7742 0.923076V10.1538H0.903226C0.663675 10.1538 0.433936 10.2511 0.264549 10.4242C0.095161 10.5973 0 10.8321 0 11.0769V38.7692C0 39.014 0.095161 39.2488 0.264549 39.4219C0.433936 39.595 0.663675 39.6923 0.903226 39.6923H7.22581V47.0769C7.2258 47.2595 7.27877 47.4379 7.37802 47.5897C7.47726 47.7415 7.61833 47.8599 7.78338 47.9297C7.94842 47.9996 8.13004 48.0179 8.30525 47.9823C8.48046 47.9466 8.64141 47.8587 8.76772 47.7296L16.6321 39.6923H41.5484C41.7879 39.6923 42.0177 39.595 42.1871 39.4219C42.3565 39.2488 42.4516 39.014 42.4516 38.7692V23.0769H44.7872L50.8452 29.2681C50.9715 29.3972 51.1324 29.4851 51.3077 29.5207C51.4829 29.5564 51.6645 29.5381 51.8295 29.4682C51.9946 29.3983 52.1356 29.28 52.2349 29.1282C52.3341 28.9764 52.3871 28.7979 52.3871 28.6154V23.0769H55.0968C55.3363 23.0769 55.5661 22.9797 55.7355 22.8065C55.9048 22.6334 56 22.3986 56 22.1538V0.923076C56 0.678261 55.9048 0.443473 55.7355 0.270363C55.5661 0.0972526 55.3363 0 55.0968 0ZM40.6452 37.8461H16.2581C16.1394 37.8461 16.022 37.87 15.9124 37.9164C15.8028 37.9628 15.7032 38.0308 15.6194 38.1165L9.03226 44.8484V38.7692C9.03226 38.5244 8.9371 38.2896 8.76771 38.1165C8.59832 37.9434 8.36858 37.8461 8.12903 37.8461H1.80645V12H40.6452V37.8461ZM54.1935 21.2308H51.4839C51.2443 21.2308 51.0146 21.328 50.8452 21.5011C50.6758 21.6742 50.5806 21.909 50.5806 22.1538V26.3869L45.8 21.5011C45.7161 21.4154 45.6165 21.3474 45.5069 21.301C45.3974 21.2546 45.2799 21.2307 45.1613 21.2308H42.4516V11.0769C42.4516 10.8321 42.3565 10.5973 42.1871 10.4242C42.0177 10.2511 41.7879 10.1538 41.5484 10.1538H22.5806V1.84615H54.1935V21.2308Z" fill="#A7B656"/>
<path d="M21.6774 36C23.8211 36 25.9167 35.3503 27.6991 34.1332C29.4815 32.916 30.8707 31.1861 31.6911 29.162C32.5114 27.138 32.7261 24.9108 32.3079 22.7621C31.8897 20.6133 30.8574 18.6396 29.3415 17.0905C27.8257 15.5414 25.8944 14.4864 23.7919 14.059C21.6894 13.6316 19.5101 13.8509 17.5296 14.6893C15.5491 15.5277 13.8563 16.9475 12.6654 18.7691C11.4744 20.5906 10.8387 22.7323 10.8387 24.9231C10.8419 27.8598 11.9849 30.6754 14.0169 32.752C16.0488 34.8286 18.8038 35.9967 21.6774 36ZM21.6774 15.6923C23.4638 15.6923 25.2101 16.2337 26.6955 17.248C28.1808 18.2623 29.3385 19.7039 30.0221 21.3906C30.7058 23.0773 30.8846 24.9333 30.5361 26.7239C30.1876 28.5145 29.3274 30.1592 28.0642 31.4502C26.801 32.7411 25.1916 33.6203 23.4395 33.9765C21.6874 34.3326 19.8714 34.1498 18.2209 33.4512C16.5705 32.7525 15.1598 31.5694 14.1674 30.0514C13.1749 28.5334 12.6452 26.7487 12.6452 24.9231C12.6479 22.4758 13.6004 20.1295 15.2937 18.399C16.9869 16.6685 19.2827 15.6951 21.6774 15.6923Z" fill="#A7B656"/>
<path d="M40.6452 4.61538H48.7742C49.0137 4.61538 49.2435 4.51813 49.4129 4.34502C49.5823 4.17191 49.6774 3.93712 49.6774 3.69231C49.6774 3.44749 49.5823 3.2127 49.4129 3.03959C49.2435 2.86648 49.0137 2.76923 48.7742 2.76923H40.6452C40.4056 2.76923 40.1759 2.86648 40.0065 3.03959C39.8371 3.2127 39.7419 3.44749 39.7419 3.69231C39.7419 3.93712 39.8371 4.17191 40.0065 4.34502C40.1759 4.51813 40.4056 4.61538 40.6452 4.61538Z" fill="#A7B656"/>
<path d="M51.4839 4.61538H52.3871C52.6266 4.61538 52.8564 4.51813 53.0258 4.34502C53.1952 4.17191 53.2903 3.93712 53.2903 3.69231C53.2903 3.44749 53.1952 3.2127 53.0258 3.03959C52.8564 2.86648 52.6266 2.76923 52.3871 2.76923H51.4839C51.2443 2.76923 51.0146 2.86648 50.8452 3.03959C50.6758 3.2127 50.5806 3.44749 50.5806 3.69231C50.5806 3.93712 50.6758 4.17191 50.8452 4.34502C51.0146 4.51813 51.2443 4.61538 51.4839 4.61538Z" fill="#A7B656"/>
<path d="M16.456 27.1154C16.3818 27.21 16.3266 27.3187 16.2936 27.4351C16.2605 27.5516 16.2502 27.6735 16.2633 27.794C16.2764 27.9145 16.3126 28.0312 16.3698 28.1375C16.427 28.2437 16.5041 28.3373 16.5968 28.4131C18.2587 29.7717 19.9678 30.4511 21.6774 30.4511C23.387 30.4511 25.0959 29.7717 26.7581 28.4131C26.9451 28.2601 27.065 28.0374 27.0914 27.794C27.1179 27.5507 27.0486 27.3065 26.8989 27.1154C26.8247 27.0207 26.7331 26.9419 26.6291 26.8834C26.5252 26.825 26.411 26.788 26.2931 26.7747C26.055 26.7477 25.8161 26.8185 25.629 26.9715C22.933 29.1753 20.4214 29.1753 17.7258 26.9715C17.6332 26.8957 17.5269 26.8393 17.4129 26.8055C17.299 26.7717 17.1796 26.7612 17.0617 26.7746C16.9438 26.7879 16.8296 26.8249 16.7257 26.8834C16.6217 26.9419 16.5301 27.0207 16.456 27.1154Z" fill="#A7B656"/>
<path d="M16.8966 22.8066C17.748 21.9366 18.381 21.9366 19.2324 22.8066C19.3159 22.8938 19.4156 22.9633 19.5255 23.011C19.6355 23.0586 19.7537 23.0835 19.8731 23.0842C19.9926 23.0849 20.111 23.0613 20.2215 23.0149C20.332 22.9685 20.4324 22.9001 20.5168 22.8138C20.6013 22.7275 20.6682 22.6248 20.7136 22.5119C20.759 22.399 20.782 22.278 20.7813 22.1559C20.7806 22.0338 20.7563 21.9131 20.7096 21.8007C20.663 21.6883 20.595 21.5865 20.5095 21.5011C18.9559 19.9132 17.1731 19.9132 15.6195 21.5011C15.5341 21.5865 15.4661 21.6883 15.4194 21.8007C15.3728 21.9131 15.3484 22.0338 15.3477 22.1559C15.347 22.278 15.3701 22.399 15.4155 22.5119C15.4608 22.6248 15.5277 22.7275 15.6122 22.8138C15.6966 22.9001 15.797 22.9685 15.9075 23.0149C16.018 23.0613 16.1364 23.0849 16.2559 23.0842C16.3754 23.0835 16.4935 23.0586 16.6035 23.011C16.7135 22.9633 16.8131 22.8938 16.8966 22.8066Z" fill="#A7B656"/>
<path d="M24.1225 22.8066C24.9739 21.9366 25.6068 21.9366 26.4582 22.8066C26.5417 22.8938 26.6414 22.9633 26.7514 23.011C26.8613 23.0586 26.9795 23.0835 27.0989 23.0842C27.2184 23.0849 27.3368 23.0613 27.4473 23.0149C27.5578 22.9685 27.6582 22.9001 27.7427 22.8138C27.8271 22.7275 27.894 22.6248 27.9394 22.5119C27.9848 22.399 28.0078 22.278 28.0071 22.1559C28.0065 22.0338 27.9821 21.9131 27.9354 21.8007C27.8888 21.6883 27.8208 21.5865 27.7354 21.5011C26.1817 19.9132 24.399 19.9132 22.8453 21.5011C22.7599 21.5865 22.6919 21.6883 22.6452 21.8007C22.5986 21.9131 22.5742 22.0338 22.5735 22.1559C22.5728 22.278 22.5959 22.399 22.6413 22.5119C22.6867 22.6248 22.7535 22.7275 22.838 22.8138C22.9225 22.9001 23.0228 22.9685 23.1333 23.0149C23.2438 23.0613 23.3622 23.0849 23.4817 23.0842C23.6012 23.0835 23.7193 23.0586 23.8293 23.011C23.9393 22.9633 24.0389 22.8938 24.1225 22.8066Z" fill="#A7B656"/>
</svg>
