<svg width="42" height="42" viewBox="0 0 42 42" fill="none" xmlns="http://www.w3.org/2000/svg">
<path d="M37.6487 5.82713C36.8028 5.78029 36.0124 6.37149 36.0124 7.26267V12.7708H22.4612L21.8606 11.5153C23.2509 9.67193 22.6529 6.94932 20.6328 5.8428L20.6756 1.79258C20.7001 -0.545962 17.0978 -0.563353 17.0732 1.7546L17.0305 5.80055C14.9894 6.86343 14.3338 9.57973 15.6833 11.4498L15.0167 12.7708H1.43555C0.644027 12.7708 0 13.4149 0 14.2064V40.5368C0 41.3283 0.644027 41.9723 1.43555 41.9723H37.9044C40.1504 41.9723 41.9793 40.1547 41.9991 37.9132C41.9993 37.907 42 37.901 42 37.8948V10.1785C42 7.77914 40.048 5.82713 37.6487 5.82713ZM37.2428 7.26267C37.2428 7.05907 37.4993 7.02528 37.6487 7.0576C39.3696 7.0576 40.7695 8.45754 40.7695 10.1784V34.9705C40.0301 34.2456 39.0179 33.7981 37.9033 33.7981C37.7432 33.8226 37.2428 33.868 37.2428 33.593V7.26267ZM27.3764 25.8965L26.7337 27.7182L19.6666 12.9458C20.1204 12.84 20.5442 12.6543 20.921 12.4026L27.3764 25.8965ZM16.6038 12.3569C16.9751 12.6164 17.3946 12.8114 17.8461 12.9268L10.469 27.5465L9.86491 25.7116L16.6038 12.3569ZM20.8937 18.362L16.5053 18.3156L18.7466 13.8738L20.8937 18.362ZM18.3036 1.76765C18.3114 1.01567 19.4527 1.0479 19.445 1.77962L19.4066 5.42214C19.0299 5.3616 18.6433 5.35668 18.2652 5.40819L18.3036 1.76765ZM16.9724 7.34766C17.4616 6.86876 18.1393 6.59798 18.8233 6.6038C20.2603 6.61898 21.417 7.80039 21.402 9.23741C21.3869 10.6652 20.2207 11.8162 18.7962 11.8162C18.787 11.8162 18.7775 11.8161 18.7683 11.8161C17.3312 11.8009 16.1746 10.6195 16.1897 9.18245C16.197 8.48633 16.475 7.83468 16.9724 7.34766ZM37.9044 40.7419H1.43555C1.32243 40.7419 1.23047 40.6499 1.23047 40.5368V14.2065C1.23047 14.0934 1.32243 14.0014 1.43555 14.0014H14.3957L12.2414 18.2707L10.163 18.2487C9.3724 18.2346 9.35591 19.4707 10.1501 19.4791L11.6237 19.4947L8.72796 25.2334C8.60467 25.4778 8.58391 25.7556 8.66947 26.0156L9.45533 28.4025C9.73506 29.2522 10.9411 29.3423 11.344 28.5438L15.8875 19.5397L21.4853 19.5988L25.8373 28.6958C26.2214 29.499 27.4319 29.437 27.7292 28.5945L28.5649 26.2258C28.6561 25.9676 28.6412 25.6892 28.5229 25.442L25.749 19.6437L27.2227 19.6592C28.0133 19.6733 28.0298 18.4372 27.2357 18.4289L25.1573 18.4069L23.0497 14.0013H36.0122V33.5931C36.0122 34.6727 36.9865 35.0626 37.9031 35.0286C39.4805 35.0286 40.7642 36.3095 40.7692 37.8858C40.7644 39.4615 39.4812 40.7419 37.9044 40.7419Z" fill="#382D2D"/>
<path d="M32.2237 30.6455H5.01851C4.45307 30.6455 3.99312 31.1055 3.99312 31.6709V37.249C3.99312 37.8145 4.45307 38.2744 5.01851 38.2744H32.2238C32.7892 38.2744 33.2491 37.8145 33.2491 37.249V31.6709C33.2491 31.1055 32.7891 30.6455 32.2237 30.6455ZM32.0186 37.0439H5.22359V31.876H6.809V32.9774C6.809 33.7474 8.03947 33.7824 8.03947 32.9774V31.876H9.60824V33.7977C9.60824 34.5677 10.8387 34.6027 10.8387 33.7977V31.876H12.4074V32.9774C12.4074 33.7474 13.6379 33.7824 13.6379 32.9774V31.876H15.2066V33.7977C15.2066 34.5677 16.4371 34.6027 16.4371 33.7977V31.876H18.0059V32.9774C18.0059 33.7474 19.2363 33.7824 19.2363 32.9774V31.876H20.8051V33.7977C20.8051 34.5677 22.0356 34.6027 22.0356 33.7977V31.876H23.6043V32.9774C23.6043 33.7474 24.8348 33.7824 24.8348 32.9774V31.876H26.4035V33.7977C26.4035 34.5677 27.6339 34.6027 27.6339 33.7977V31.876H29.2027V32.9774C29.2027 33.7474 30.4332 33.7824 30.4332 32.9774V31.876H32.0186V37.0439Z" fill="#382D2D"/>
</svg>
