<svg width="38" height="40" viewBox="0 0 38 40" fill="none" xmlns="http://www.w3.org/2000/svg">
<path d="M36.7434 23.4292H36.1564V18.0374C36.1564 17.1838 35.7398 16.428 35.1035 15.9688V15.2347C35.1035 14.1698 34.2539 13.3034 33.2095 13.3034H32.7712L34.4483 10.794C35.0104 9.95295 34.7966 8.80225 33.9718 8.22897L22.592 0.321152C22.1925 0.0434176 21.7108 -0.0590824 21.2355 0.0328708C20.7604 0.124668 20.3488 0.39959 20.0765 0.80709L10.2543 15.5042H7.52104L8.18047 8.69717C8.1879 8.62045 8.23678 8.55397 8.30497 8.5278C9.15456 8.20116 9.89084 7.59116 10.3781 6.81022C10.4165 6.74873 10.4889 6.71358 10.5638 6.72131L14.8508 7.15319C15.1582 7.18358 15.4317 6.9553 15.462 6.64201C15.4923 6.32873 15.2679 6.04975 14.9607 6.01881L10.6737 5.58694C10.1761 5.53725 9.70152 5.77108 9.4349 6.19826C9.07664 6.77248 8.53528 7.22092 7.91063 7.46108C7.44044 7.64186 7.11758 8.07248 7.06794 8.58506L6.3977 15.5041H5.68495L6.72784 4.73819C6.76538 4.35069 7.10456 4.066 7.48503 4.10483L16.1483 4.97748C16.4555 5.00772 16.7291 4.77959 16.7594 4.46631C16.7898 4.15303 16.5653 3.87404 16.2581 3.84311L7.5949 2.97045C6.60165 2.87053 5.71345 3.61311 5.61531 4.62608L4.77468 13.3034H3.34312C2.29885 13.3034 1.44918 14.1698 1.44918 15.2347V15.7355C0.594843 16.1366 0 17.0172 0 18.0374V37.4667C0 38.8636 1.11445 40 2.48441 40H33.6721C35.042 40 36.1564 38.8636 36.1564 37.4667V32.075H36.7434C37.4363 32.075 38 31.5002 38 30.7937V24.7105C38.0001 24.004 37.4363 23.4292 36.7434 23.4292ZM33.2095 14.4434C33.6375 14.4433 33.9856 14.7983 33.9856 15.2348V15.5251C33.8828 15.5119 33.7783 15.5043 33.6721 15.5043H31.3004L32.0094 14.4434H33.2095ZM21.0002 1.44897C21.1044 1.29311 21.2619 1.18795 21.4436 1.15279C21.4871 1.14443 21.5306 1.14022 21.5739 1.14022C21.7116 1.14022 21.8462 1.18225 21.9625 1.26303L33.3422 9.17084C33.6577 9.39014 33.7396 9.8303 33.5246 10.152L29.9477 15.504H29.0893L30.843 12.8801C31.1274 12.4545 31.1508 11.913 30.9039 11.4666C30.5759 10.8737 30.4429 10.1755 30.5294 9.50053C30.5938 8.99842 30.3771 8.50827 29.964 8.22123L24.0648 4.12186C23.6516 3.83475 23.1249 3.80842 22.6902 4.05318C22.106 4.38209 21.4201 4.51123 20.7589 4.41686C20.2686 4.3467 19.7712 4.57248 19.4911 4.99162L12.4655 15.5041H11.6071L21.0002 1.44897ZM21.2464 11.128C18.8123 11.128 16.8141 13.0633 16.6513 15.5041H13.8181L20.4147 5.63358H20.4147C20.4522 5.5774 20.5143 5.54397 20.5782 5.54397C20.5867 5.54397 20.5952 5.54459 20.6037 5.54576C21.503 5.67405 22.4358 5.49858 23.2304 5.05115C23.293 5.01584 23.3733 5.02092 23.4352 5.06389L29.3345 9.16334C29.3962 9.20631 29.4302 9.28069 29.421 9.35288C29.3032 10.2708 29.4842 11.2203 29.9303 12.0267C29.9661 12.0915 29.9617 12.1744 29.9193 12.2381L27.7367 15.504H25.8417C25.6788 13.0633 23.6807 11.128 21.2464 11.128ZM24.7208 15.5042H17.7721C17.9322 13.6926 19.4289 12.268 21.2464 12.268C23.064 12.2679 24.5607 13.6926 24.7208 15.5042ZM2.56708 15.2347C2.56708 14.7983 2.91514 14.4433 3.34312 14.4433H4.66428L4.56154 15.5041H2.56708V15.2347ZM1.1179 18.0374C1.1179 17.2691 1.7309 16.6441 2.48441 16.6441H33.6721C34.4256 16.6441 35.0385 17.2691 35.0385 18.0374V19.619H1.1179V18.0374ZM35.0385 37.4667C35.0385 38.235 34.4256 38.8601 33.6721 38.8601H2.48441C1.7309 38.8601 1.1179 38.235 1.1179 37.4667V35.8852H4.13211C4.44087 35.8852 4.69102 35.63 4.69102 35.3152C4.69102 35.0005 4.44079 34.7453 4.13211 34.7453H1.1179V20.7589H35.0385V23.4292H29.7239C28.0494 23.4292 26.5989 24.4245 25.9105 25.8652C25.9082 25.8701 25.9056 25.8748 25.9032 25.8796C25.8974 25.8919 25.8924 25.9046 25.8867 25.9169C25.8047 26.0945 25.7335 26.2784 25.6755 26.468C25.6753 26.4686 25.6752 26.4691 25.675 26.4696C25.5513 26.875 25.4845 27.3057 25.4845 27.7521C25.4845 30.1358 27.3863 32.075 29.7238 32.075H35.0384V34.7453H7.71112C7.40236 34.7453 7.15221 35.0005 7.15221 35.3152C7.15221 35.63 7.40244 35.8852 7.71112 35.8852H35.0385V37.4667ZM36.8822 30.7937C36.8822 30.8716 36.82 30.9351 36.7434 30.9351H29.7241C28.5407 30.9351 27.509 30.2602 26.9799 29.268C26.9558 29.223 26.9328 29.1772 26.9108 29.1309C26.8669 29.0381 26.8273 28.9429 26.7923 28.8454C26.6696 28.5043 26.6026 28.136 26.6026 27.7521C26.6026 27.3682 26.6696 26.9999 26.7923 26.6588C26.8274 26.5614 26.867 26.4662 26.9108 26.3734C26.9328 26.327 26.9558 26.2812 26.9799 26.2362C27.509 25.2441 28.5407 24.5691 29.7241 24.5691H36.7434C36.8199 24.5691 36.8822 24.6326 36.8822 24.7105V30.7937Z" fill="#382D2D"/>
<path d="M29.855 25.4396C28.6045 25.4396 27.5872 26.477 27.5872 27.7521C27.5872 29.0272 28.6045 30.0645 29.855 30.0645C31.1055 30.0645 32.1228 29.0272 32.1228 27.7521C32.1228 26.477 31.1055 25.4396 29.855 25.4396ZM29.855 28.9246C29.2209 28.9246 28.7051 28.3986 28.7051 27.7521C28.7051 27.1056 29.2209 26.5795 29.855 26.5795C30.4891 26.5795 31.0049 27.1055 31.0049 27.7521C31.0049 28.3987 30.4891 28.9246 29.855 28.9246Z" fill="#382D2D"/>
</svg>
