<svg width="56" height="24" viewBox="0 0 56 24" fill="none" xmlns="http://www.w3.org/2000/svg">
<path d="M53.9813 9.43418L47.731 8.26749C47.4383 8.21279 47.1972 8.00056 47.1016 7.71345L45.1011 1.70312C44.762 0.684502 43.8247 0.000110499 42.7688 0.000110499H35.5066C34.1486 0.000110499 33.0439 1.12546 33.0439 2.50861V8.27819H31.2264V1.95112C31.2264 0.875346 30.3672 0 29.3109 0H9.54988C9.09652 0 8.72902 0.374337 8.72902 0.836131C8.72902 1.20791 8.96735 1.52264 9.29678 1.63137V11.1204C9.29678 11.5822 9.66428 11.9565 10.1176 11.9565C10.571 11.9565 10.9385 11.5822 10.9385 11.1204V1.67226H14.3088V11.1204C14.3088 11.5822 14.6763 11.9565 15.1297 11.9565C15.583 11.9565 15.9505 11.5822 15.9505 11.1204V1.67226H19.3208V11.1204C19.3208 11.5822 19.6883 11.9565 20.1417 11.9565C20.595 11.9565 20.9625 11.5822 20.9625 11.1204V1.67226H24.3328V11.1204C24.3328 11.5822 24.7003 11.9565 25.1537 11.9565C25.607 11.9565 25.9745 11.5822 25.9745 11.1204V1.67226H29.3105C29.4613 1.67226 29.5841 1.79726 29.5841 1.95101V16.2774C29.5841 16.431 29.4614 16.5562 29.3105 16.5562H21.6414C20.9545 16.019 20.0962 15.6987 19.1654 15.6987C18.2345 15.6987 17.3761 16.019 16.6893 16.5562H15.7239C16.3535 15.2431 17.6846 14.3588 19.1655 14.3588C19.7592 14.3588 20.3276 14.4933 20.8551 14.7585C21.2618 14.963 21.754 14.7928 21.9546 14.3787C22.1552 13.9645 21.9882 13.4632 21.5817 13.2588C20.8264 12.8791 20.0134 12.6865 19.1656 12.6865C17.2426 12.6865 15.4953 13.7298 14.5173 15.328C13.5393 13.7292 11.7927 12.6865 9.86904 12.6865C7.49242 12.6865 5.38126 14.2669 4.66124 16.5562H1.91549C1.76466 16.5562 1.64183 16.4312 1.64183 16.2774V1.95123C1.64183 1.7976 1.76455 1.67248 1.91549 1.67248H4.28477V11.1206C4.28477 11.5824 4.65227 11.9567 5.10564 11.9567C5.559 11.9567 5.9265 11.5824 5.9265 11.1206V1.56286C6.17445 1.41891 6.3419 1.14786 6.3419 0.836353C6.3419 0.37456 5.9744 0.000222697 5.52104 0.000222697H1.91549C0.859252 0.000111287 0 0.875346 0 1.95123V16.2776C0 17.3534 0.859252 18.2288 1.91549 18.2288H6.11834C5.91009 18.727 5.79459 19.2748 5.79459 19.8495C5.79459 22.1381 7.62247 24 9.86925 24C12.116 24 13.9439 22.1381 13.9439 19.8495C13.9439 19.2748 13.8285 18.727 13.6202 18.2288H15.4147C15.2064 18.727 15.0909 19.2748 15.0909 19.8495C15.0909 22.1381 16.9188 24 19.1656 24C21.4124 24 23.2403 22.1381 23.2403 19.8495C23.2403 19.2748 23.1249 18.727 22.9165 18.2288H29.3107C30.3668 18.2288 31.2262 17.3535 31.2262 16.2776V15.7555H33.0437V16.2776C33.0437 17.3534 33.9029 18.2288 34.9592 18.2288H39.4283V19.5617H34.7719C34.3186 19.5617 33.951 19.936 33.951 20.3978C33.951 20.8596 34.3186 21.2339 34.7719 21.2339H39.483C39.6481 21.8147 40.1738 22.2408 40.7965 22.2408H42.5186C43.1661 22.2408 43.7089 21.7797 43.8499 21.1634C44.3909 22.8097 45.9181 24 47.7142 24C49.5101 24 51.0374 22.8097 51.5784 21.1634C51.7195 21.7798 52.2622 22.241 52.9097 22.241H54.6318C55.3863 22.241 56 21.6158 56 20.8473V11.9017C56.0001 10.6903 55.1511 9.65265 53.9813 9.43418ZM9.86925 14.359C11.3502 14.359 12.6804 15.2425 13.3105 16.5564H12.3454C11.6585 16.0193 10.8001 15.699 9.86936 15.699C8.93858 15.699 8.0802 16.0193 7.39333 16.5564H6.42667C7.05711 15.235 8.3893 14.359 9.86925 14.359ZM9.86925 22.3276C8.52777 22.3276 7.43642 21.216 7.43642 19.8494C7.43642 18.4829 8.52777 17.3712 9.86925 17.3712C11.2107 17.3712 12.3022 18.4829 12.3022 19.8494C12.3022 21.216 11.2109 22.3276 9.86925 22.3276ZM19.1658 22.3276C17.8243 22.3276 16.7329 21.216 16.7329 19.8494C16.7329 18.4829 17.8242 17.3712 19.1658 17.3712C20.5073 17.3712 21.5987 18.4829 21.5987 19.8494C21.5987 21.216 20.5073 22.3276 19.1658 22.3276ZM31.2264 14.0831V9.95056H33.0439V14.0831H31.2264ZM47.7143 22.3276C46.3728 22.3276 45.2813 21.216 45.2813 19.8494C45.2813 18.4829 46.3727 17.3712 47.7143 17.3712C49.0558 17.3712 50.1471 18.4829 50.1471 19.8494C50.1471 21.216 49.0558 22.3276 47.7143 22.3276ZM47.7143 15.699C45.9586 15.699 44.4587 16.8358 43.8869 18.4248V18.3356C43.8869 16.1785 45.5744 14.3949 47.6485 14.3597C48.6829 14.3406 49.6604 14.7392 50.3978 15.4779C51.1354 16.2169 51.5416 17.2041 51.5416 18.2577V18.4251C50.9698 16.8359 49.47 15.699 47.7143 15.699ZM54.3583 20.5686H53.1835V18.2576C53.1835 16.752 52.603 15.3412 51.549 14.2854C50.4951 13.2298 49.0993 12.6605 47.6211 12.6875C44.6567 12.7378 42.2451 15.2715 42.2451 18.3355V20.5685H41.0704V17.9499C41.0704 17.1814 40.4567 16.5563 39.7022 16.5563H34.9594C34.8086 16.5563 34.6857 16.4313 34.6857 16.2775V2.50861C34.6857 2.04749 35.054 1.67248 35.5066 1.67248H42.7688C43.1207 1.67248 43.4332 1.90065 43.5462 2.24012L43.9278 3.38663H37.9925C37.238 3.38663 36.6243 4.01175 36.6243 4.78026V8.55694C36.6243 9.32544 37.238 9.95056 37.9925 9.95056H38.2869C38.7403 9.95056 39.1078 9.57622 39.1078 9.11443C39.1078 8.65264 38.7403 8.2783 38.2869 8.2783H38.266V5.05901H44.4843L45.5466 8.25056C45.5497 8.25992 45.5536 8.26894 45.5569 8.2783H42.263C41.8097 8.2783 41.4422 8.65264 41.4422 9.11443C41.4422 9.57622 41.8097 9.95056 42.263 9.95056H47.6394L53.6851 11.079C54.075 11.1519 54.3581 11.4978 54.3581 11.9016V20.5686H54.3583Z" fill="#382D2D"/>
<path d="M9.86936 20.8438C10.4085 20.8438 10.8455 20.3986 10.8455 19.8494C10.8455 19.3003 10.4085 18.8551 9.86936 18.8551C9.33024 18.8551 8.89319 19.3003 8.89319 19.8494C8.89319 20.3986 9.33024 20.8438 9.86936 20.8438Z" fill="#382D2D"/>
<path d="M19.1658 20.8438C19.7049 20.8438 20.142 20.3986 20.142 19.8494C20.142 19.3003 19.7049 18.8551 19.1658 18.8551C18.6267 18.8551 18.1896 19.3003 18.1896 19.8494C18.1896 20.3986 18.6267 20.8438 19.1658 20.8438Z" fill="#382D2D"/>
<path d="M47.7143 20.8438C48.2534 20.8438 48.6905 20.3986 48.6905 19.8494C48.6905 19.3003 48.2534 18.8551 47.7143 18.8551C47.1752 18.8551 46.7381 19.3003 46.7381 19.8494C46.7381 20.3986 47.1752 20.8438 47.7143 20.8438Z" fill="#382D2D"/>
</svg>
