<svg width="46" height="46" viewBox="0 0 46 46" fill="none" xmlns="http://www.w3.org/2000/svg">
<path d="M37.8081 29.3463V37.8983H43.2994V31.7148L41.1088 29.3463H37.8081ZM41.949 36.5478H39.1585V30.6967H40.5181L41.949 32.2437V36.5478Z" fill="#382D2D"/>
<path d="M42.2894 26.6457H35.1075V36.5478H20.9294V37.8983H36.458V27.9962H41.6991L42.7211 29.101L43.7125 28.1843L42.2894 26.6457Z" fill="#382D2D"/>
<path d="M44.6292 29.1754L43.6377 30.0924L44.6495 31.186V41.949H43.1415C42.8277 40.41 41.4639 39.2484 39.8338 39.2484C38.2032 39.2484 36.8394 40.41 36.526 41.949H34.1396C33.8258 40.41 32.462 39.2484 30.8318 39.2484C29.2017 39.2484 27.8375 40.41 27.5241 41.949H17.4858C17.1721 40.41 15.8083 39.2484 14.1781 39.2484C12.5479 39.2484 11.1838 40.41 10.8704 41.949H9.38411C9.07071 40.41 7.70656 39.2484 6.07639 39.2484C4.44621 39.2484 3.08241 40.41 2.76866 41.949H1.35046V37.8983H19.5793V36.5478H0V43.2994H2.76866C3.08206 44.8383 4.44621 46 6.07639 46C7.70656 46 9.07036 44.8383 9.38411 43.2994H10.8704C11.1838 44.8383 12.5476 46 14.1781 46C15.8083 46 17.1721 44.8383 17.4858 43.2994H27.5238C27.8375 44.8383 29.2013 46 30.8315 46C32.4617 46 33.8258 44.8383 34.1392 43.2994H36.5257C36.8391 44.8383 38.2032 46 39.8334 46C41.4636 46 42.8274 44.8383 43.1411 43.2994H46V30.6574L44.6292 29.1754ZM6.07639 44.6495C4.9593 44.6495 4.05104 43.7413 4.05104 42.6242C4.05104 41.5075 4.9593 40.5988 6.07639 40.5988C7.19312 40.5988 8.10173 41.5075 8.10173 42.6242C8.10173 43.7413 7.19312 44.6495 6.07639 44.6495ZM14.1781 44.6495C13.061 44.6495 12.1528 43.7413 12.1528 42.6242C12.1528 41.5075 13.061 40.5988 14.1781 40.5988C15.2948 40.5988 16.2035 41.5075 16.2035 42.6242C16.2035 43.7413 15.2948 44.6495 14.1781 44.6495ZM30.8318 44.6495C29.7148 44.6495 28.8062 43.7413 28.8062 42.6242C28.8062 41.5075 29.7148 40.5988 30.8318 40.5988C31.9486 40.5988 32.8572 41.5075 32.8572 42.6242C32.8572 43.7413 31.9486 44.6495 30.8318 44.6495ZM39.8338 44.6495C38.7167 44.6495 37.8081 43.7413 37.8081 42.6242C37.8081 41.5075 38.7167 40.5988 39.8338 40.5988C40.9505 40.5988 41.8591 41.5075 41.8591 42.6242C41.8591 43.7413 40.9505 44.6495 39.8338 44.6495Z" fill="#382D2D"/>
<path d="M17.4293 29.8134L30.1598 17.0829L31.1147 18.0375L18.3839 30.7683L17.4293 29.8134Z" fill="#382D2D"/>
<path d="M15.6132 23.9925L20.6205 18.9851L21.5755 19.94L16.5681 24.9474L15.6132 23.9925Z" fill="#382D2D"/>
<path d="M31.9145 9.6003L34.7794 12.4651L31.1151 16.1291L32.07 17.0836L36.6889 12.4648L35.7339 11.5098L43.7865 3.45758C44.1691 3.07504 44.3797 2.56651 44.3797 2.02534C44.3797 1.48418 44.1691 0.975647 43.7865 0.59346C43.404 0.210571 42.8951 0 42.3543 0C41.8131 0 41.3046 0.210571 40.9221 0.593109L37.8116 3.7036L38.7662 4.65854L41.877 1.54805C42.0044 1.42065 42.1739 1.35046 42.3543 1.35046C42.5347 1.35046 42.7042 1.42065 42.8316 1.54805C42.959 1.67545 43.0292 1.84496 43.0292 2.02534C43.0292 2.20573 42.959 2.37524 42.8316 2.50299L34.779 10.5552L33.8244 9.60065L37.8112 5.61348L36.8566 4.65854L32.8698 8.64571L31.9145 7.69077L21.5755 18.0302L22.5304 18.9851L31.9145 9.6003Z" fill="#382D2D"/>
<path d="M4.05104 23.0449V29.7965H12.6027V27.096L9.5645 23.0449H4.05104ZM11.2526 28.4461H5.40115V24.3954H8.88927L11.2526 27.5459V28.4461Z" fill="#382D2D"/>
<path d="M3.82573 33.8472H1.35046V32.4971H15.3033V33.8472H5.17619V35.1977H16.6537V31.1467H15.3033V26.1958L13.2779 23.4952L12.1977 24.3052L13.9532 26.6457V31.1467H2.70058V21.6948H10.2397L11.3873 23.225L12.4676 22.415L10.915 20.3443H1.35046V31.1467H0V35.1977H3.82573V33.8472Z" fill="#382D2D"/>
<path d="M45.6399 15.8883H44.2895C44.2895 16.7569 43.583 17.4637 42.7144 17.4637C41.8458 17.4637 41.139 16.7569 41.139 15.8883C41.139 15.0197 41.8458 14.3132 42.7144 14.3132H43.3893V9.85719H42.0392V13.0414C40.7505 13.3471 39.7885 14.5077 39.7885 15.8883C39.7885 17.5016 41.1011 18.8142 42.7144 18.8142C44.3274 18.8142 45.6399 17.5016 45.6399 15.8883Z" fill="#382D2D"/>
<path d="M42.0392 7.15662H43.3893V8.50673H42.0392V7.15662Z" fill="#382D2D"/>
<path d="M25.5205 40.5988H21.9198V39.2484H25.5205V40.5988ZM20.5693 40.5988H19.2192V39.2484H20.5693V40.5988Z" fill="#382D2D"/>
<path d="M24.003 21.3316L23.0481 20.377L24.003 19.422L24.9576 20.377L24.003 21.3316ZM25.9126 19.422L24.9576 18.4675L25.9126 17.5125L26.8675 18.4675L25.9126 19.422ZM27.8221 17.5125L26.8675 16.5579L27.8221 15.603L28.7767 16.5579L27.8221 17.5125Z" fill="#382D2D"/>
</svg>
