<svg width="38" height="38" viewBox="0 0 38 38" fill="none" xmlns="http://www.w3.org/2000/svg">
<path d="M34.8333 11.4H27.8667V8.23333C27.8667 8.21942 27.8596 8.20736 27.8583 8.19344C27.8552 8.13809 27.8444 8.08304 27.8262 8.03078C27.819 8.01037 27.8141 7.99089 27.8051 7.97109C27.7745 7.90213 27.7315 7.83936 27.6786 7.78555L20.0786 0.185547C20.0245 0.132357 19.9614 0.0896809 19.8925 0.0587565C19.8733 0.0507161 19.8551 0.045459 19.8353 0.0386556C19.7815 0.0201009 19.7252 0.00896808 19.6683 0.00556641C19.6581 0.00711263 19.6466 0 19.6333 0H3.16667C1.41851 0.00216472 0.00216472 1.41851 0 3.16667V32.3C0.00216472 34.0482 1.41851 35.4645 3.16667 35.4667H16.5301C16.8331 36.9402 18.1292 37.9981 19.6333 38H34.8333C36.5815 37.9978 37.9978 36.5815 38 34.8333V14.5667C37.9978 12.8185 36.5815 11.4022 34.8333 11.4ZM25.7044 7.6H20.9C20.5502 7.6 20.2667 7.31642 20.2667 6.96667V2.16224L25.7044 7.6ZM1.26667 32.3V3.16667C1.26667 2.1174 2.1174 1.26667 3.16667 1.26667H19V6.96667C19 8.01593 19.8507 8.86667 20.9 8.86667H26.6V11.4H19.6333C17.8852 11.4022 16.4688 12.8185 16.4667 14.5667V34.2H3.16667C2.1174 34.2 1.26667 33.3493 1.26667 32.3ZM36.7333 34.8333C36.7333 35.8826 35.8826 36.7333 34.8333 36.7333H19.6333C18.5841 36.7333 17.7333 35.8826 17.7333 34.8333V14.5667C17.7333 13.5174 18.5841 12.6667 19.6333 12.6667H34.8333C35.8826 12.6667 36.7333 13.5174 36.7333 14.5667V34.8333Z" fill="white"/>
<path d="M32.3 13.9333H22.1667C20.4185 13.9355 19.0022 15.3518 19 17.1V19.6333C19.0022 21.3815 20.4185 22.7978 22.1667 22.8H32.3C34.0482 22.7978 35.4645 21.3815 35.4667 19.6333V17.1C35.4645 15.3518 34.0482 13.9355 32.3 13.9333ZM34.2 19.6333C34.2 20.6826 33.3493 21.5333 32.3 21.5333H22.1667C21.1174 21.5333 20.2667 20.6826 20.2667 19.6333V17.1C20.2667 16.0507 21.1174 15.2 22.1667 15.2H32.3C33.3493 15.2 34.2 16.0507 34.2 17.1V19.6333Z" fill="white"/>
<path d="M21.5333 24.0667C20.1343 24.0667 19 25.201 19 26.6C19 27.999 20.1343 29.1333 21.5333 29.1333C22.9324 29.1333 24.0667 27.999 24.0667 26.6C24.0667 25.201 22.9324 24.0667 21.5333 24.0667ZM21.5333 27.8667C20.8338 27.8667 20.2667 27.2995 20.2667 26.6C20.2667 25.9005 20.8338 25.3333 21.5333 25.3333C22.2328 25.3333 22.8 25.9005 22.8 26.6C22.8 27.2995 22.2328 27.8667 21.5333 27.8667Z" fill="white"/>
<path d="M27.2333 24.0667C25.8343 24.0667 24.7 25.201 24.7 26.6C24.7 27.999 25.8343 29.1333 27.2333 29.1333C28.6324 29.1333 29.7667 27.999 29.7667 26.6C29.7667 25.201 28.6324 24.0667 27.2333 24.0667ZM27.2333 27.8667C26.5338 27.8667 25.9667 27.2995 25.9667 26.6C25.9667 25.9005 26.5338 25.3333 27.2333 25.3333C27.9328 25.3333 28.5 25.9005 28.5 26.6C28.5 27.2995 27.9328 27.8667 27.2333 27.8667Z" fill="white"/>
<path d="M21.5333 30.4C20.1343 30.4 19 31.5343 19 32.9333C19 34.3324 20.1343 35.4667 21.5333 35.4667C22.9324 35.4667 24.0667 34.3324 24.0667 32.9333C24.0667 31.5343 22.9324 30.4 21.5333 30.4ZM21.5333 34.2C20.8338 34.2 20.2667 33.6328 20.2667 32.9333C20.2667 32.2338 20.8338 31.6667 21.5333 31.6667C22.2328 31.6667 22.8 32.2338 22.8 32.9333C22.8 33.6328 22.2328 34.2 21.5333 34.2Z" fill="white"/>
<path d="M27.2333 30.4C25.8343 30.4 24.7 31.5343 24.7 32.9333C24.7 34.3324 25.8343 35.4667 27.2333 35.4667C28.6324 35.4667 29.7667 34.3324 29.7667 32.9333C29.7667 31.5343 28.6324 30.4 27.2333 30.4ZM27.2333 34.2C26.5338 34.2 25.9667 33.6328 25.9667 32.9333C25.9667 32.2338 26.5338 31.6667 27.2333 31.6667C27.9328 31.6667 28.5 32.2338 28.5 32.9333C28.5 33.6328 27.9328 34.2 27.2333 34.2Z" fill="white"/>
<path d="M32.9333 24.0667C31.5343 24.0667 30.4 25.201 30.4 26.6V32.9333C30.4 34.3324 31.5343 35.4667 32.9333 35.4667C34.3324 35.4667 35.4667 34.3324 35.4667 32.9333V26.6C35.4667 25.201 34.3324 24.0667 32.9333 24.0667ZM34.2 32.9333C34.2 33.6328 33.6328 34.2 32.9333 34.2C32.2338 34.2 31.6667 33.6328 31.6667 32.9333V26.6C31.6667 25.9005 32.2338 25.3333 32.9333 25.3333C33.6328 25.3333 34.2 25.9005 34.2 26.6V32.9333Z" fill="white"/>
<path d="M6.51888 11.2145C6.76628 11.4615 7.16706 11.4615 7.41445 11.2145L13.1145 5.51445C13.3544 5.26582 13.351 4.87091 13.1067 4.62661C12.8624 4.38231 12.4675 4.37891 12.2189 4.61888L6.51888 10.3189C6.27179 10.5663 6.27179 10.9671 6.51888 11.2145Z" fill="white"/>
<path d="M10.1333 10.1333C10.1333 11.1826 10.9841 12.0333 12.0333 12.0333C13.0826 12.0333 13.9333 11.1826 13.9333 10.1333C13.9333 9.08407 13.0826 8.23333 12.0333 8.23333C10.9841 8.23333 10.1333 9.08407 10.1333 10.1333ZM12.6667 10.1333C12.6667 10.4831 12.3831 10.7667 12.0333 10.7667C11.6836 10.7667 11.4 10.4831 11.4 10.1333C11.4 9.78358 11.6836 9.5 12.0333 9.5C12.3831 9.5 12.6667 9.78358 12.6667 10.1333Z" fill="white"/>
<path d="M7.6 7.6C8.64927 7.6 9.5 6.74927 9.5 5.7C9.5 4.65073 8.64927 3.8 7.6 3.8C6.55073 3.8 5.7 4.65073 5.7 5.7C5.7 6.74927 6.55073 7.6 7.6 7.6ZM7.6 5.06667C7.94976 5.06667 8.23333 5.35024 8.23333 5.7C8.23333 6.04976 7.94976 6.33333 7.6 6.33333C7.25024 6.33333 6.96667 6.04976 6.96667 5.7C6.96667 5.35024 7.25024 5.06667 7.6 5.06667Z" fill="white"/>
<path d="M4.43333 17.1H12.0333C12.3831 17.1 12.6667 16.8164 12.6667 16.4667C12.6667 16.1169 12.3831 15.8333 12.0333 15.8333H4.43333C4.08358 15.8333 3.8 16.1169 3.8 16.4667C3.8 16.8164 4.08358 17.1 4.43333 17.1Z" fill="white"/>
<path d="M13.3 18.3667H4.43333C4.08358 18.3667 3.8 18.6502 3.8 19C3.8 19.3498 4.08358 19.6333 4.43333 19.6333H13.3C13.6498 19.6333 13.9333 19.3498 13.9333 19C13.9333 18.6502 13.6498 18.3667 13.3 18.3667Z" fill="white"/>
<path d="M6.96667 20.9H4.43333C4.08358 20.9 3.8 21.1836 3.8 21.5333C3.8 21.8831 4.08358 22.1667 4.43333 22.1667H6.96667C7.31642 22.1667 7.6 21.8831 7.6 21.5333C7.6 21.1836 7.31642 20.9 6.96667 20.9Z" fill="white"/>
<path d="M13.3 20.9H9.5C9.15024 20.9 8.86667 21.1836 8.86667 21.5333C8.86667 21.8831 9.15024 22.1667 9.5 22.1667H13.3C13.6498 22.1667 13.9333 21.8831 13.9333 21.5333C13.9333 21.1836 13.6498 20.9 13.3 20.9Z" fill="white"/>
</svg>
